<svg width="24" height="24" viewBox="0 0 24 24" fill="none" xmlns="http://www.w3.org/2000/svg">
<rect width="24" height="24" fill="#5271FF"/>
<mask id="mask0_1_24" style="mask-type:luminance" maskUnits="userSpaceOnUse" x="4" y="1" width="16" height="16">
<path d="M19.49 1.8287L4.6962 1.83231L4.69981 16.6261L19.4936 16.6225L19.49 1.8287Z" fill="white"/>
</mask>
<g mask="url(#mask0_1_24)">
<mask id="mask1_1_24" style="mask-type:luminance" maskUnits="userSpaceOnUse" x="4" y="1" width="16" height="16">
<path d="M12.0931 1.83051C16.1783 1.82951 19.4908 5.14041 19.4918 9.2256C19.4928 13.3108 16.1819 16.6233 12.0967 16.6243C8.01151 16.6253 4.699 13.3144 4.69801 9.2292C4.69701 5.14401 8.00791 1.8315 12.0931 1.83051Z" fill="white"/>
</mask>
<g mask="url(#mask1_1_24)">
<path d="M19.49 1.8287L4.69621 1.83231L4.69981 16.6261L19.4936 16.6225L19.49 1.8287Z" fill="white"/>
</g>
</g>
<mask id="mask2_1_24" style="mask-type:luminance" maskUnits="userSpaceOnUse" x="2" y="0" width="20" height="24">
<path d="M21.3542 0.23999L2.87996 0.244489L2.88567 23.6926L21.36 23.6881L21.3542 0.23999Z" fill="white"/>
</mask>
<g mask="url(#mask2_1_24)">
<path d="M12.1194 16.9258C16.2236 16.9248 19.5495 13.5938 19.5485 9.48659C19.5475 5.37839 16.2199 2.04904 12.1158 2.05004C8.01288 2.05104 4.68708 5.38201 4.68808 9.4902C4.68908 13.5975 8.0165 16.9268 12.1194 16.9258ZM12.1154 0.243063C17.2163 0.241821 21.3524 4.38025 21.3537 9.48615C21.3557 17.6127 12.266 23.5969 12.1223 23.6914C12.1211 23.6914 12.1211 23.6914 12.1211 23.6914C12.1211 23.6914 2.88493 17.6815 2.88293 9.49064C2.88169 4.38475 7.01568 0.244305 12.1154 0.243063Z" fill="#2E266D"/>
<path d="M13.2419 8.99372L10.9948 8.99427C10.8822 8.99429 10.7906 9.08584 10.7906 9.19884L10.7912 11.3836C10.7912 11.4964 10.8828 11.5881 10.9954 11.5881L13.2426 11.5875C13.3553 11.5875 13.4467 11.4958 13.4467 11.383L13.4462 9.19819C13.4462 9.08519 13.3547 8.99369 13.2419 8.99372ZM7.52535 7.94404L11.7664 5.09514C11.8617 5.03057 11.9868 4.99451 12.118 4.99448C12.2479 4.99445 12.3731 5.03045 12.4684 5.09355L16.7108 7.94181C16.7182 7.94666 16.7269 7.95292 16.7331 7.96044C16.9213 8.14858 16.8991 8.29987 16.868 8.37318C16.8372 8.44749 16.7468 8.57146 16.4806 8.57152L15.4258 8.57178L15.4268 12.4905C15.4269 12.8462 15.1384 13.1364 14.783 13.1364L9.4557 13.1377C9.10032 13.1378 8.81189 12.8478 8.81181 12.4921L8.81085 8.57339L7.75594 8.57365C7.48963 8.57371 7.39929 8.44979 7.36842 8.37549C7.3385 8.30219 7.31512 8.15092 7.50313 7.96268C7.51064 7.95517 7.51814 7.9489 7.52535 7.94404Z" fill="#2E266D"/>
</g>
</svg>
