<svg width="250" height="250" viewBox="0 0 250 250" fill="none" xmlns="http://www.w3.org/2000/svg">
<rect width="250" height="250" fill="#5271FF"/>
<mask id="mask0_1_171" style="mask-type:luminance" maskUnits="userSpaceOnUse" x="48" y="19" width="156" height="155">
<path d="M203.021 19.049L48.9189 19.0865L48.9565 173.188L203.058 173.151L203.021 19.049Z" fill="white"/>
</mask>
<g mask="url(#mask0_1_171)">
<mask id="mask1_1_171" style="mask-type:luminance" maskUnits="userSpaceOnUse" x="48" y="19" width="156" height="155">
<path d="M125.97 19.0677C168.524 19.0574 203.029 53.5459 203.04 96.1C203.05 138.654 168.561 173.159 126.007 173.17C83.4534 173.18 48.9481 138.692 48.9377 96.1375C48.9273 53.5834 83.4158 19.0781 125.97 19.0677Z" fill="white"/>
</mask>
<g mask="url(#mask1_1_171)">
<path d="M203.021 19.049L48.9189 19.0865L48.9565 173.188L203.058 173.151L203.021 19.049Z" fill="white"/>
</g>
</g>
<mask id="mask2_1_171" style="mask-type:luminance" maskUnits="userSpaceOnUse" x="30" y="2" width="193" height="245">
<path d="M222.441 2.5L30.0001 2.54686L30.0596 246.798L222.5 246.751L222.441 2.5Z" fill="white"/>
</mask>
<g mask="url(#mask2_1_171)">
<path d="M126.246 176.31C168.998 176.3 203.643 141.602 203.633 98.8184C203.622 56.0247 168.96 21.344 126.208 21.3544C83.4697 21.3648 48.826 56.0624 48.8364 98.8561C48.8468 141.64 83.5075 176.321 126.246 176.31ZM126.204 2.53167C179.338 2.51873 222.424 45.6273 222.437 98.8138C222.457 183.465 127.773 245.8 126.276 246.785C126.263 246.785 126.263 246.785 126.263 246.785C126.263 246.785 30.0536 184.182 30.0328 98.8606C30.0199 45.6742 73.0823 2.5446 126.204 2.53167Z" fill="#2E266D"/>
<path d="M137.938 93.6847L114.53 93.6904C113.357 93.6907 112.403 94.6443 112.404 95.8214L112.409 118.58C112.41 119.755 113.364 120.71 114.537 120.71L137.945 120.704C139.12 120.704 140.072 119.748 140.071 118.573L140.066 95.8147C140.066 94.6376 139.113 93.6845 137.938 93.6847ZM78.3905 82.7506L122.568 53.0745C123.561 52.4019 124.864 52.0263 126.231 52.026C127.584 52.0257 128.888 52.4006 129.881 53.058L174.072 82.7273C174.149 82.7778 174.24 82.8431 174.304 82.9214C176.265 84.8813 176.033 86.4571 175.71 87.2208C175.388 87.9949 174.447 89.2862 171.675 89.2868L160.687 89.2895L160.697 130.109C160.698 133.815 157.693 136.837 153.991 136.838L98.4983 136.852C94.7965 136.853 91.792 133.832 91.7911 130.126L91.7812 89.3063L80.7925 89.309C78.0184 89.3097 77.0774 88.0188 76.7558 87.2448C76.4441 86.4814 76.2006 84.9056 78.1591 82.9448C78.2373 82.8665 78.3154 82.8012 78.3905 82.7506Z" fill="#2E266D"/>
</g>
</svg>
