<svg width="100" height="100" viewBox="0 0 100 100" fill="none" xmlns="http://www.w3.org/2000/svg">
<mask id="mask0_1_149" style="mask-type:luminance" maskUnits="userSpaceOnUse" x="19" y="7" width="63" height="63">
<path d="M81.2084 7.6196L19.5676 7.63461L19.5826 69.2754L81.2234 69.2604L81.2084 7.6196Z" fill="white"/>
</mask>
<g mask="url(#mask0_1_149)">
<mask id="mask1_1_149" style="mask-type:luminance" maskUnits="userSpaceOnUse" x="19" y="7" width="63" height="63">
<path d="M50.388 7.6271C67.4096 7.62296 81.2117 21.4184 81.2159 38.44C81.22 55.4616 67.4246 69.2637 50.403 69.2679C33.3814 69.272 19.5793 55.4766 19.5751 38.455C19.571 21.4334 33.3664 7.63125 50.388 7.6271Z" fill="white"/>
</mask>
<g mask="url(#mask1_1_149)">
<path d="M81.2084 7.6196L19.5676 7.63461L19.5826 69.2754L81.2234 69.2604L81.2084 7.6196Z" fill="white"/>
</g>
</g>
<mask id="mask2_1_149" style="mask-type:luminance" maskUnits="userSpaceOnUse" x="12" y="1" width="78" height="98">
<path d="M88.9763 1L12.0001 1.01874L12.0239 98.7193L89.0001 98.7006L88.9763 1Z" fill="white"/>
</mask>
<g mask="url(#mask2_1_149)">
<path d="M50.4984 70.5241C67.5991 70.5199 81.4573 56.6409 81.4531 39.5273C81.449 22.4099 67.584 8.53758 50.4833 8.54175C33.3879 8.54591 19.5304 22.4249 19.5345 39.5424C19.5387 56.656 33.403 70.5282 50.4984 70.5241ZM50.4815 1.01267C71.7353 1.00749 88.9694 18.2509 88.9746 39.5255C88.9828 73.386 51.1093 98.3201 50.5105 98.7139C50.5053 98.7139 50.5053 98.7139 50.5053 98.7139C50.5053 98.7139 12.0214 73.673 12.0131 39.5443C12.0079 18.2697 29.2329 1.01784 50.4815 1.01267Z" fill="#2E266D"/>
<path d="M55.1753 37.4739L45.8121 37.4762C45.3429 37.4763 44.9613 37.8578 44.9615 38.3286L44.9637 47.4319C44.9638 47.9019 45.3456 48.2839 45.8147 48.2838L55.1779 48.2815C55.6478 48.2814 56.0286 47.8993 56.0285 47.4292L56.0263 38.3259C56.0262 37.8551 55.6451 37.4738 55.1753 37.4739ZM31.3562 33.1003L49.0272 21.2298C49.4243 20.9608 49.9456 20.8105 50.4923 20.8104C51.0336 20.8103 51.555 20.9603 51.9522 21.2232L69.6288 33.0909C69.6596 33.1112 69.6958 33.1373 69.7217 33.1686C70.5059 33.9525 70.4133 34.5829 70.2841 34.8883C70.1553 35.198 69.7789 35.7145 68.6698 35.7148L64.2748 35.7158L64.2788 52.0437C64.2792 53.526 63.0772 54.7349 61.5965 54.7353L39.3993 54.7407C37.9185 54.741 36.7168 53.5327 36.7164 52.0505L36.7124 35.7225L32.317 35.7236C31.2073 35.7239 30.8309 35.2075 30.7023 34.898C30.5776 34.5926 30.4802 33.9623 31.2636 33.1779C31.2949 33.1466 31.3261 33.1205 31.3562 33.1003Z" fill="#2E266D"/>
</g>
</svg>
