<svg width="580" height="220" viewBox="0 0 580 220" fill="none" xmlns="http://www.w3.org/2000/svg">
<path d="M285.5 205V210H283C282.123 210 281.249 209.989 280.377 209.966L280.506 204.968C278.839 204.925 277.183 204.839 275.539 204.711L275.152 209.696C273.404 209.561 271.668 209.38 269.945 209.155L270.592 204.197C268.941 203.982 267.303 203.724 265.679 203.425L264.773 208.342C263.049 208.024 261.341 207.663 259.65 207.258L260.813 202.395C259.195 202.008 257.593 201.58 256.008 201.111L254.59 205.905C252.911 205.409 251.25 204.869 249.609 204.288L251.278 199.575C249.711 199.02 248.163 198.425 246.635 197.791L244.72 202.41C243.104 201.74 241.509 201.028 239.937 200.277L242.093 195.766C240.594 195.05 239.117 194.295 237.663 193.504L235.273 197.896C233.737 197.061 232.226 196.186 230.74 195.274L233.357 191.013C231.942 190.144 230.552 189.24 229.187 188.3L226.352 192.418C224.913 191.427 223.502 190.4 222.119 189.338L225.166 185.373C223.85 184.362 222.562 183.317 221.302 182.24L218.053 186.041C216.726 184.907 215.429 183.738 214.164 182.537L217.606 178.911C216.404 177.769 215.231 176.596 214.089 175.394L210.463 178.836C209.262 177.571 208.093 176.274 206.959 174.947L210.76 171.698C209.683 170.438 208.638 169.15 207.627 167.834L203.662 170.881C202.6 169.498 201.573 168.087 200.582 166.648L204.7 163.813C203.76 162.448 202.856 161.058 201.987 159.643L197.726 162.26C196.814 160.774 195.939 159.263 195.104 157.727L199.496 155.337C198.705 153.883 197.95 152.406 197.234 150.907L192.723 153.063C191.972 151.491 191.26 149.896 190.59 148.28L195.209 146.365C194.575 144.837 193.98 143.289 193.425 141.722L188.712 143.391C188.131 141.75 187.591 140.089 187.095 138.41L191.889 136.992C191.42 135.407 190.992 133.805 190.605 132.187L185.742 133.35C185.337 131.659 184.976 129.95 184.658 128.227L189.575 127.321C189.276 125.697 189.018 124.059 188.803 122.408L183.845 123.055C183.62 121.332 183.439 119.596 183.304 117.848L188.289 117.461C188.161 115.817 188.075 114.161 188.032 112.494L183.034 112.623C183.011 111.751 183 110.877 183 110C183 109.123 183.011 108.249 183.034 107.377L188.032 107.506C188.075 105.839 188.161 104.183 188.289 102.539L183.304 102.152C183.44 100.404 183.62 98.6677 183.845 96.9454L188.803 97.5921C189.018 95.9407 189.276 94.3026 189.575 92.6789L184.658 91.773C184.976 90.0495 185.337 88.3413 185.742 86.6497L190.605 87.8131C190.992 86.195 191.42 84.593 191.889 83.0083L187.095 81.5901C187.591 79.9108 188.131 78.2499 188.712 76.6088L193.425 78.278C193.98 76.7111 194.575 75.163 195.209 73.6352L190.59 71.7199C191.26 70.1037 191.972 68.509 192.723 66.937L197.234 69.0927C197.95 67.5939 198.705 66.1168 199.496 64.6627L195.104 62.2731C195.939 60.7373 196.814 59.226 197.726 57.7404L201.987 60.3568C202.856 58.9421 203.76 57.5519 204.7 56.1874L200.582 53.3518C201.573 51.9131 202.6 50.5017 203.662 49.1189L207.627 52.1655C208.638 50.8499 209.683 49.5616 210.76 48.3017L206.959 45.0527C208.093 43.726 209.262 42.4293 210.463 41.164L214.089 44.6063C215.231 43.4036 216.404 42.2308 217.606 41.0891L214.164 37.4628C215.429 36.2617 216.726 35.0934 218.053 33.9592L221.302 37.7597C222.562 36.6827 223.85 35.638 225.166 34.627L222.119 30.6625C223.502 29.5998 224.913 28.5725 226.352 27.5819L229.187 31.7C230.552 30.7605 231.942 29.8557 233.357 28.9869L230.74 24.7262C232.226 23.8139 233.737 22.9393 235.273 22.1037L237.663 26.4957C239.117 25.7045 240.594 24.9503 242.093 24.2341L239.937 19.7227C241.509 18.9715 243.104 18.2602 244.72 17.59L246.635 22.2086C248.163 21.5751 249.711 20.9802 251.278 20.4253L249.609 15.7121C251.25 15.1309 252.911 14.5913 254.59 14.0946L256.008 18.8892C257.593 18.4205 259.195 17.9919 260.813 17.6048L259.65 12.742C261.341 12.3373 263.05 11.9756 264.773 11.6581L265.679 16.5753C267.303 16.2762 268.941 16.0184 270.592 15.803L269.945 10.845C271.668 10.6203 273.404 10.4395 275.152 10.3037L275.539 15.2887C277.183 15.1609 278.839 15.0751 280.506 15.0321L280.377 10.0338C281.249 10.0113 282.123 10 283 10H285.5V15H290.5V10H295.5V15H300.5V10H305.5V15H310.5V10H315.5V15H320.5V10H325.5V15H330.5V10H335.5V15H340.5V10H345.5V15H350.5V10H355.5V15H360.5V10H365.5V15H370.5V10H375.5V15H380.5V10H385.5V15H390.5V10H395.5V15H400.5V10H405.5V15H410.5V10H415.5V15H420.5V10H425.5V15H430.5V10H435.5V15H440.5V10H445.5V15H450.5V10H455.5V15H460.5V10H465.5V15H470.5V10H473C473.877 10 474.751 10.0113 475.623 10.0338L475.494 15.0321C477.161 15.0751 478.817 15.1609 480.461 15.2887L480.848 10.3037C482.596 10.4395 484.332 10.6203 486.055 10.845L485.408 15.803C487.059 16.0184 488.697 16.2762 490.321 16.5753L491.227 11.6581C492.951 11.9756 494.659 12.3373 496.35 12.742L495.187 17.6048C496.805 17.9919 498.407 18.4205 499.992 18.8892L501.41 14.0946C503.089 14.5913 504.75 15.1309 506.391 15.7121L504.722 20.4253C506.289 20.9802 507.837 21.5751 509.365 22.2086L511.28 17.59C512.896 18.2602 514.491 18.9715 516.063 19.7227L513.907 24.2341C515.406 24.9503 516.883 25.7045 518.337 26.4957L520.727 22.1037C522.263 22.9393 523.774 23.8139 525.26 24.7262L522.643 28.9869C524.058 29.8557 525.448 30.7605 526.813 31.7L529.648 27.5819C531.087 28.5725 532.498 29.5998 533.881 30.6625L530.834 34.627C532.15 35.638 533.438 36.6827 534.698 37.7597L537.947 33.9591C539.274 35.0934 540.571 36.2617 541.836 37.4628L538.394 41.0891C539.596 42.2308 540.769 43.4036 541.911 44.6063L545.537 41.164C546.738 42.4293 547.907 43.726 549.041 45.0527L545.24 48.3017C546.317 49.5616 547.362 50.8499 548.373 52.1655L552.338 49.1189C553.4 50.5017 554.427 51.9131 555.418 53.3518L551.3 56.1874C552.24 57.5519 553.144 58.9421 554.013 60.3568L558.274 57.7404C559.186 59.226 560.061 60.7373 560.896 62.2731L556.504 64.6627C557.295 66.1168 558.05 67.5939 558.766 69.0927L563.277 66.937C564.028 68.509 564.74 70.1037 565.41 71.7199L560.791 73.6352C561.425 75.1631 562.02 76.7111 562.575 78.278L567.288 76.6088C567.869 78.25 568.409 79.9108 568.905 81.5901L564.111 83.0083C564.58 84.593 565.008 86.195 565.395 87.8131L570.258 86.6497C570.663 88.3413 571.024 90.0495 571.342 91.7731L566.425 92.6789C566.724 94.3026 566.982 95.9407 567.197 97.5921L572.155 96.9454C572.38 98.6678 572.56 100.404 572.696 102.152L567.711 102.539C567.839 104.183 567.925 105.839 567.968 107.506L572.966 107.377C572.989 108.249 573 109.123 573 110C573 110.877 572.989 111.751 572.966 112.623L567.968 112.494C567.925 114.161 567.839 115.817 567.711 117.461L572.696 117.848C572.56 119.596 572.38 121.332 572.155 123.055L567.197 122.408C566.982 124.059 566.724 125.697 566.425 127.321L571.342 128.227C571.024 129.951 570.663 131.659 570.258 133.35L565.395 132.187C565.008 133.805 564.58 135.407 564.111 136.992L568.905 138.41C568.409 140.089 567.869 141.75 567.288 143.391L562.575 141.722C562.02 143.289 561.425 144.837 560.791 146.365L565.41 148.28C564.74 149.896 564.028 151.491 563.277 153.063L558.766 150.907C558.05 152.406 557.295 153.883 556.504 155.337L560.896 157.727C560.061 159.263 559.186 160.774 558.274 162.26L554.013 159.643C553.144 161.058 552.24 162.448 551.3 163.813L555.418 166.648C554.427 168.087 553.4 169.498 552.338 170.881L548.373 167.834C547.362 169.15 546.317 170.438 545.24 171.698L549.041 174.947C547.907 176.274 546.738 177.571 545.537 178.836L541.911 175.394C540.769 176.596 539.596 177.769 538.394 178.911L541.836 182.537C540.571 183.738 539.274 184.907 537.947 186.041L534.698 182.24C533.438 183.317 532.15 184.362 530.834 185.373L533.881 189.338C532.498 190.4 531.087 191.427 529.648 192.418L526.813 188.3C525.448 189.24 524.058 190.144 522.643 191.013L525.26 195.274C523.774 196.186 522.263 197.061 520.727 197.896L518.337 193.504C516.883 194.295 515.406 195.05 513.907 195.766L516.063 200.277C514.491 201.028 512.896 201.74 511.28 202.41L509.365 197.791C507.837 198.425 506.289 199.02 504.722 199.575L506.391 204.288C504.75 204.869 503.089 205.409 501.41 205.905L499.992 201.111C498.407 201.58 496.805 202.008 495.187 202.395L496.35 207.258C494.659 207.663 492.951 208.024 491.227 208.342L490.321 203.425C488.697 203.724 487.059 203.982 485.408 204.197L486.055 209.155C484.332 209.38 482.596 209.561 480.848 209.696L480.461 204.711C478.817 204.839 477.161 204.925 475.494 204.968L475.623 209.966C474.751 209.989 473.877 210 473 210H470.5V205H465.5V210H460.5V205H455.5V210H450.5V205H445.5V210H440.5V205H435.5V210H430.5V205H425.5V210H420.5V205H415.5V210H410.5V205H405.5V210H400.5V205H395.5V210H390.5V205H385.5V210H380.5V205H375.5V210H370.5V205H365.5V210H360.5V205H355.5V210H350.5V205H345.5V210H340.5V205H335.5V210H330.5V205H325.5V210H320.5V205H315.5V210H310.5V205H305.5V210H300.5V205H295.5V210H290.5V205H285.5Z" fill="#2E266D"/>
<path d="M274.24 112.101H299.725L300.086 116.749L292.633 118.583C292.633 118.91 292.593 119.644 292.513 120.785C292.433 121.927 292.352 123.721 292.272 126.167C292.272 128.613 292.272 132.079 292.272 136.564V155.4C292.352 160.537 293.154 164.696 294.676 167.876C296.279 171.056 298.443 173.38 301.168 174.848C303.973 176.234 307.219 176.927 310.905 176.927C314.431 176.927 317.477 176.193 320.041 174.726C322.686 173.176 324.73 170.771 326.172 167.509C327.615 164.247 328.336 159.926 328.336 154.544V138.765C328.336 135.096 328.296 131.875 328.216 129.102C328.136 126.248 328.055 123.925 327.975 122.131C327.895 120.255 327.775 119.073 327.615 118.583L319.2 116.749L319.56 112.101H342.882L343.242 116.749L335.909 118.583C335.909 118.828 335.869 119.603 335.789 120.907C335.709 122.212 335.629 124.291 335.549 127.145C335.549 129.918 335.549 133.791 335.549 138.765V155.155C335.549 162.005 334.427 167.631 332.183 172.035C329.939 176.438 326.853 179.7 322.926 181.82C319.08 183.94 314.672 185 309.703 185C300.968 185 294.115 182.554 289.147 177.661C284.258 172.687 281.814 165.756 281.814 156.868V136.564C281.814 132.079 281.774 128.613 281.694 126.167C281.613 123.639 281.533 121.804 281.453 120.663C281.453 119.521 281.413 118.828 281.333 118.583L274 116.749L274.24 112.101Z" fill="white"/>
<path d="M355.023 183.899L354.783 179.251L361.635 177.539C361.715 177.213 361.755 176.397 361.755 175.093C361.835 173.788 361.875 171.912 361.875 169.466C361.955 166.938 361.995 163.84 361.995 160.17L362.115 134.362C362.115 131.1 362.075 128.369 361.995 126.167C361.995 123.884 361.955 122.09 361.875 120.785C361.875 119.48 361.835 118.706 361.755 118.461L354.302 116.749L354.662 112.101H392.649C393.852 112.101 395.054 112.101 396.256 112.101C397.538 112.019 398.86 111.938 400.223 111.856C401.665 111.775 403.148 111.693 404.671 111.612L407.195 127.757L401.665 128.613L397.578 118.339C397.017 118.176 396.336 118.094 395.534 118.094C394.813 118.013 394.012 117.972 393.13 117.972H379.787C378.585 117.972 377.222 118.013 375.699 118.094C374.257 118.094 373.095 118.176 372.213 118.339C372.213 118.665 372.173 119.277 372.093 120.174C372.093 121.071 372.093 122.212 372.093 123.598C372.093 124.985 372.093 126.534 372.093 128.246C372.093 129.877 372.093 131.671 372.093 133.628L372.213 160.293C372.213 164.125 372.213 167.264 372.213 169.711C372.293 172.157 372.374 173.992 372.454 175.215C372.534 176.438 372.614 177.213 372.694 177.539L382.431 179.007L382.191 183.899H355.023ZM393.25 159.803L391.688 150.997C391.207 150.834 390.445 150.711 389.404 150.63C388.442 150.548 387.28 150.507 385.918 150.507H375.82C375.018 150.507 374.097 150.548 373.055 150.63C372.093 150.63 370.931 150.671 369.569 150.752V144.025C370.53 144.106 371.532 144.188 372.574 144.269C373.696 144.351 374.778 144.392 375.82 144.392H385.918C387.52 144.392 388.763 144.351 389.644 144.269C390.606 144.106 391.287 143.984 391.688 143.902L393.25 135.585H398.42V159.803H393.25Z" fill="white"/>
<path d="M452.996 185C446.024 185 439.652 183.655 433.882 180.964C428.192 178.191 423.624 174.114 420.178 168.732C416.732 163.269 415.009 156.542 415.009 148.55C415.009 143.413 415.89 138.602 417.654 134.117C419.417 129.551 421.981 125.555 425.347 122.131C428.793 118.624 432.961 115.893 437.849 113.936C442.738 111.979 448.308 111 454.559 111C457.844 111 461.331 111.326 465.017 111.979C468.704 112.631 471.989 113.569 474.874 114.792L475.716 131.549L470.306 132.038L466.7 120.418C465.177 119.358 463.174 118.583 460.689 118.094C458.205 117.523 455.801 117.238 453.477 117.238C447.466 117.238 442.537 118.583 438.691 121.274C434.924 123.884 432.119 127.39 430.276 131.793C428.513 136.197 427.631 141.048 427.631 146.349C427.631 153.28 428.793 159.151 431.117 163.962C433.522 168.773 436.727 172.402 440.734 174.848C444.821 177.294 449.309 178.517 454.198 178.517C456.763 178.517 459.087 178.232 461.17 177.661C463.254 177.09 465.258 176.234 467.181 175.093L472.47 163.595L478 164.207L474.634 179.618C471.909 181.086 468.664 182.35 464.897 183.41C461.13 184.47 457.163 185 452.996 185Z" fill="white"/>
<path d="M261.201 105.002L261 101.169L265.929 99.7571L286.653 47.5076L292.488 43.9772L314.418 99.7571L319.448 101.169L319.146 105.002H298.825L298.624 101.169L304.761 99.7571L298.825 84.8286L297.719 81.7017L286.753 54.2657L289.067 52.9544L278.605 81.7017L277.498 84.7278L272.167 99.7571L278.303 101.169L278.102 105.002H261.201ZM275.285 86.3416V80.9957C276.559 81.0629 278.303 81.1302 280.516 81.1974C282.729 81.2646 285.446 81.2983 288.665 81.2983C291.817 81.2983 294.5 81.2646 296.713 81.1974C298.993 81.1302 300.737 81.0629 301.944 80.9957V86.3416C299.664 86.2744 297.383 86.2408 295.103 86.2408C292.89 86.1735 290.744 86.1399 288.665 86.1399C286.653 86.1399 284.54 86.1735 282.327 86.2408C280.181 86.2408 277.834 86.2744 275.285 86.3416Z" fill="white"/>
<path d="M322.265 105.002L322.064 101.27L328.603 99.8579C328.737 99.1855 328.837 98.0759 328.905 96.5293C328.972 94.9826 329.005 92.9317 329.005 90.3764C329.072 87.821 329.106 84.6941 329.106 80.9957V68.3872C329.106 65.8319 329.072 63.2093 329.005 60.5195C329.005 57.8297 328.972 55.308 328.905 52.9544C328.905 50.5336 328.871 48.4826 328.804 46.8015C328.804 45.0531 328.77 43.91 328.703 43.372L321.259 42.3633L321.058 39.1356L335.443 35L337.355 36.4121C337.288 39.2364 337.221 42.0607 337.154 44.885C337.087 47.7093 337.02 50.8362 336.952 54.2657C336.952 57.6952 336.952 61.8308 336.952 66.6725L336.852 82.9121C336.852 86.8796 336.885 90.4772 336.952 93.705C337.087 96.8655 337.221 98.9165 337.355 99.8579L343.894 101.27L343.693 105.002H322.265Z" fill="white"/>
<path d="M392.282 97.9414L398.62 99.5553V102.884L385.542 106.112L384.033 104.8L384.134 98.4458L383.832 98.3449C381.887 101.102 379.875 103.052 377.796 104.195C375.784 105.271 373.604 105.809 371.257 105.809C366.763 105.809 363.008 104.431 359.99 101.674C356.972 98.8492 355.463 94.6464 355.463 89.0651V80.3905C355.463 78.5076 355.396 76.692 355.262 74.9436C355.194 73.128 355.094 71.3124 354.96 69.4967L348.119 68.0846V64.756L361.801 61.0239L363.611 62.6377C363.477 64.7223 363.377 66.9414 363.31 69.295C363.242 71.6486 363.209 74.103 363.209 76.6584L363.108 87.7538C363.108 91.923 364.081 94.9154 366.026 96.731C367.971 98.4794 370.452 99.3536 373.47 99.3536C375.281 99.3536 377.125 98.8829 379.003 97.9414C380.881 97 382.524 95.3861 383.932 93.0998V81.3991C383.932 79.9197 383.899 78.474 383.832 77.0618C383.832 75.5824 383.798 74.2039 383.731 72.9262C383.664 71.5813 383.564 70.4382 383.429 69.4967L376.086 68.0846V64.756L390.27 61.0239L391.779 62.436C391.712 64.3189 391.645 66 391.578 67.4794C391.578 68.9588 391.578 70.4382 391.578 71.9176C391.578 73.3297 391.578 74.9436 391.578 76.7592V83.9208C391.578 87.6193 391.645 90.6117 391.779 92.898C391.98 95.1171 392.148 96.7983 392.282 97.9414Z" fill="white"/>
<path d="M424.574 128C418.404 128 413.509 126.991 409.887 124.974C406.265 122.957 404.455 120.267 404.455 116.905C404.455 114.618 405.36 112.5 407.171 110.55C408.982 108.6 411.899 106.616 415.923 104.599L419.746 105.406C417.533 106.683 415.822 108.163 414.615 109.844C413.408 111.592 412.804 113.441 412.804 115.392C412.804 118.081 413.877 120.166 416.024 121.645C418.237 123.125 421.221 123.864 424.977 123.864C429.336 123.864 432.857 122.923 435.54 121.04C438.222 119.157 439.564 116.736 439.564 113.778C439.564 111.491 438.725 109.777 437.049 108.633C435.439 107.557 432.757 106.885 429.001 106.616L418.237 105.708L416.728 105.305C414.246 105.305 412.134 104.666 410.39 103.388C408.713 102.043 407.875 100.43 407.875 98.5466C407.875 96.731 408.747 94.949 410.491 93.2007C412.234 91.4523 414.649 89.9056 417.734 88.5607L419.042 90.5781C417.767 91.4523 416.828 92.2592 416.225 92.9989C415.621 93.6714 415.319 94.3438 415.319 95.0163C415.319 95.9577 415.722 96.7646 416.527 97.4371C417.398 98.1095 418.606 98.513 420.148 98.6475L433.125 99.9588C437.753 100.43 441.274 101.606 443.688 103.489C446.103 105.372 447.31 108.062 447.31 111.559C447.31 114.652 446.304 117.443 444.292 119.931C442.28 122.419 439.564 124.369 436.143 125.781C432.723 127.26 428.867 128 424.574 128ZM425.379 92.4946C421.825 92.4946 418.639 91.8557 415.822 90.5781C413.073 89.3004 410.927 87.5521 409.384 85.333C407.841 83.0466 407.07 80.4577 407.07 77.5662C407.07 74.4056 407.875 71.5813 409.485 69.0933C411.094 66.538 413.274 64.5542 416.024 63.1421C418.773 61.6627 421.858 60.923 425.279 60.923C428.699 60.923 431.751 61.5954 434.433 62.9403C437.183 64.2852 439.329 66.1681 440.872 68.5889C442.414 70.9425 443.185 73.6323 443.185 76.6584C443.185 79.6171 442.381 82.3069 440.771 84.7278C439.228 87.1486 437.116 89.0651 434.433 90.4772C431.751 91.8221 428.733 92.4946 425.379 92.4946ZM425.882 88.4599C428.632 88.4599 430.812 87.4512 432.421 85.4338C434.031 83.4165 434.836 80.7267 434.836 77.3644C434.836 73.5987 433.93 70.5727 432.119 68.2863C430.376 66 428.062 64.8568 425.178 64.8568C422.428 64.8568 420.182 65.9328 418.438 68.0846C416.694 70.2364 415.822 73.0271 415.822 76.4566C415.822 80.0206 416.728 82.9121 418.539 85.1312C420.416 87.3503 422.864 88.4599 425.882 88.4599ZM449.221 68.1855L437.25 67.3785L433.327 63.3438L449.221 61.7299V68.1855Z" fill="white"/>
<path d="M470.146 105.809C467.463 105.809 465.082 105.271 463.003 104.195C460.924 103.119 459.281 101.741 458.074 100.06C456.934 98.3785 456.364 96.6302 456.364 94.8145C456.364 92.5282 457.102 90.6453 458.577 89.1659C460.053 87.6866 462.467 86.4089 465.82 85.333L481.111 80.1887V75.0445C481.111 73.3633 480.608 71.8503 479.602 70.5054C478.596 69.0933 477.255 67.9837 475.578 67.1768C473.902 66.3698 472.024 65.9664 469.945 65.9664C468.268 65.9664 467.128 66.3362 466.524 67.0759C465.921 67.7484 465.552 69.1269 465.418 71.2115L465.217 75.4479C462.802 75.9859 460.757 75.9187 459.08 75.2462C457.403 74.5065 456.565 73.3297 456.565 71.7158C456.565 70.5727 457.035 69.4295 457.973 68.2863C458.979 67.1432 460.287 66.0672 461.897 65.0586C463.506 63.9826 465.25 63.0748 467.128 62.3351C469.006 61.5954 470.85 61.0911 472.661 60.8221C477.624 60.8221 481.581 62.1334 484.532 64.756C487.55 67.3785 489.092 70.808 489.159 75.0445L488.958 91.9902C488.958 93.2679 488.992 94.5119 489.059 95.7223C489.193 96.9328 489.36 97.8406 489.562 98.4458L496 99.6562V102.783L491.071 104.599C490.132 104.935 489.26 105.204 488.455 105.406C487.65 105.675 486.98 105.809 486.443 105.809C484.364 105.809 483.023 104.632 482.419 102.279L481.313 98.3449H482.821C480.608 100.833 478.462 102.716 476.383 103.993C474.371 105.204 472.292 105.809 470.146 105.809ZM472.862 99.8579C474.405 99.8579 475.847 99.5217 477.188 98.8492C478.529 98.1095 479.837 97 481.111 95.5206V84.9295L469.844 87.9555C468.235 88.359 467.061 88.9978 466.323 89.872C465.653 90.7462 465.317 91.8557 465.317 93.2007C465.317 94.8818 466.055 96.4284 467.53 97.8406C469.073 99.1855 470.85 99.8579 472.862 99.8579Z" fill="white"/>
<ellipse cx="90.5" cy="90" rx="74.5" ry="76" fill="#5271FF"/>
<mask id="mask0_9_2" style="mask-type:luminance" maskUnits="userSpaceOnUse" x="23" y="18" width="135" height="135">
<path d="M157.101 18.3568L23.4128 18.3893L23.4453 152.078L157.134 152.045L157.101 18.3568Z" fill="white"/>
</mask>
<g mask="url(#mask0_9_2)">
<mask id="mask1_9_2" style="mask-type:luminance" maskUnits="userSpaceOnUse" x="23" y="18" width="135" height="135">
<path d="M90.257 18.3731C127.174 18.3641 157.108 48.284 157.117 85.201C157.126 122.118 127.207 152.052 90.2896 152.061C53.3725 152.07 23.438 122.151 23.429 85.2336C23.4201 48.3165 53.34 18.382 90.257 18.3731Z" fill="white"/>
</mask>
<g mask="url(#mask1_9_2)">
<path d="M157.101 18.3568L23.4128 18.3893L23.4453 152.078L157.134 152.045L157.101 18.3568Z" fill="white"/>
</g>
</g>
<mask id="mask2_9_2" style="mask-type:luminance" maskUnits="userSpaceOnUse" x="7" y="4" width="167" height="212">
<path d="M173.948 4L6.99999 4.04065L7.05159 215.937L174 215.896L173.948 4Z" fill="white"/>
</mask>
<g mask="url(#mask2_9_2)">
<path d="M90.4928 154.787C127.581 154.778 157.637 124.677 157.628 87.5604C157.619 50.4355 127.548 20.3489 90.4601 20.3579C53.3829 20.3669 23.3283 50.4682 23.3374 87.5931C23.3464 124.71 53.4156 154.796 90.4928 154.787ZM90.4561 4.02859C136.552 4.01737 173.93 41.4155 173.941 87.5565C173.959 160.994 91.8176 215.072 90.5189 215.926C90.5077 215.926 90.5077 215.926 90.5077 215.926C90.5077 215.926 7.04264 161.617 7.02462 87.5971C7.01338 41.4561 44.3715 4.03982 90.4561 4.02859Z" fill="#2E266D"/>
<path d="M100.64 83.1058L80.3326 83.1107C79.3152 83.111 78.4875 83.9383 78.4878 84.9594L78.4926 104.703C78.4928 105.722 79.3209 106.551 80.3383 106.551L100.646 106.546C101.665 106.545 102.491 105.717 102.49 104.697L102.486 84.9536C102.485 83.9324 101.659 83.1055 100.64 83.1058ZM48.9802 73.6201L87.3057 47.8751C88.167 47.2916 89.2976 46.9657 90.4833 46.9655C91.6573 46.9652 92.788 47.2905 93.6496 47.8607L131.987 73.5999C132.054 73.6437 132.132 73.7003 132.189 73.7682C133.889 75.4685 133.688 76.8356 133.408 77.4981C133.129 78.1696 132.313 79.2899 129.907 79.2905L120.375 79.2928L120.384 114.705C120.385 117.92 117.778 120.542 114.566 120.543L66.4244 120.554C63.2129 120.555 60.6064 117.935 60.6056 114.72L60.597 79.3073L51.064 79.3097C48.6574 79.3103 47.841 78.1904 47.5621 77.519C47.2917 76.8566 47.0804 75.4896 48.7794 73.7885C48.8472 73.7206 48.9151 73.6639 48.9802 73.6201Z" fill="#2E266D"/>
</g>
</svg>
