<svg width="550" height="550" viewBox="0 0 550 550" fill="none" xmlns="http://www.w3.org/2000/svg">
<path d="M153.715 543.542V548.542H151.25C150.363 548.542 149.478 548.533 148.595 548.515L148.696 543.516C146.994 543.482 145.299 543.413 143.614 543.31L143.31 548.301C141.542 548.193 139.785 548.049 138.037 547.871L138.546 542.897C136.85 542.723 135.165 542.516 133.49 542.275L132.778 547.224C131.024 546.971 129.281 546.683 127.55 546.36L128.467 541.445C126.794 541.133 125.132 540.787 123.484 540.408L122.364 545.281C120.638 544.885 118.926 544.453 117.228 543.988L118.549 539.166C116.909 538.717 115.283 538.234 113.671 537.72L112.151 542.483C110.465 541.945 108.795 541.374 107.14 540.769L108.857 536.073C107.26 535.489 105.678 534.873 104.112 534.226L102.202 538.846C100.567 538.17 98.9488 537.462 97.3488 536.721L99.4491 532.184C97.907 531.47 96.3821 530.725 94.8754 529.95L92.5889 534.397C91.0167 533.588 89.4634 532.748 87.9299 531.878L90.3984 527.53C88.9214 526.691 87.4634 525.823 86.0254 524.926L83.3796 529.169C81.8803 528.234 80.4019 527.269 78.9451 526.275L81.7635 522.145C80.3612 521.188 78.9796 520.203 77.6197 519.19L74.6336 523.2C73.2168 522.145 71.8225 521.062 70.4518 519.951L73.6002 516.067C72.2816 514.998 70.9856 513.902 69.7129 512.781L66.4075 516.533C65.0828 515.365 63.7824 514.171 62.5072 512.951L65.9639 509.339C64.7379 508.165 63.5362 506.967 62.3596 505.745L58.7574 509.213C57.5333 507.941 56.3353 506.644 55.1642 505.323L58.9058 502.007C57.7806 500.737 56.6812 499.444 55.6085 498.129L51.7337 501.289C50.6184 499.921 49.5308 498.53 48.4717 497.117L52.4734 494.119C51.4568 492.762 50.4676 491.383 49.5067 489.984L45.3848 492.814C44.3863 491.36 43.4171 489.884 42.4779 488.387L46.7133 485.73C45.8124 484.294 44.9405 482.838 44.0982 481.364L39.7565 483.843C38.8818 482.312 38.0378 480.761 37.2253 479.19L41.6662 476.893C40.8876 475.388 40.1392 473.865 39.4218 472.324L34.8893 474.435C34.1447 472.836 33.4322 471.22 32.7527 469.586L37.3692 467.666C36.7186 466.102 36.0994 464.521 35.5124 462.925L30.8198 464.651C30.2116 462.998 29.6365 461.328 29.0955 459.643L33.8562 458.114C33.3388 456.503 32.8539 454.878 32.4021 453.238L27.5818 454.567C27.1138 452.869 26.68 451.157 26.2812 449.432L31.1527 448.305C30.7716 446.657 30.4238 444.996 30.1099 443.324L25.1957 444.246C24.8709 442.515 24.581 440.772 24.3268 439.018L29.2751 438.301C29.0325 436.627 28.8237 434.942 28.6494 433.246L23.6757 433.758C23.4959 432.01 23.3515 430.252 23.243 428.484L28.2336 428.178C28.1302 426.493 28.0608 424.798 28.026 423.096L23.0271 423.198C23.0091 422.315 23 421.429 23 420.542C23 419.655 23.0091 418.77 23.0271 417.887L28.026 417.989C28.0608 416.286 28.1302 414.591 28.2336 412.906L23.243 412.6C23.3515 410.832 23.496 409.074 23.6757 407.326L28.6494 407.838C28.8237 406.143 29.0326 404.458 29.2751 402.783L24.3268 402.066C24.581 400.312 24.8709 398.569 25.1957 396.838L30.1099 397.761C30.4238 396.088 30.7717 394.427 31.1527 392.779L26.2812 391.652C26.68 389.927 27.1139 388.215 27.5818 386.517L32.4021 387.846C32.8539 386.206 33.3388 384.581 33.8562 382.97L29.0956 381.441C29.6365 379.756 30.2116 378.087 30.8198 376.433L35.5124 378.159C36.0994 376.563 36.7186 374.983 37.3692 373.418L32.7527 371.498C33.4322 369.864 34.1447 368.248 34.8893 366.649L39.4218 368.76C40.1392 367.22 40.8876 365.697 41.6662 364.192L37.2253 361.894C38.0378 360.324 38.8817 358.772 39.7565 357.241L44.0982 359.721C44.9405 358.246 45.8124 356.79 46.7133 355.355L42.4779 352.697C43.4171 351.201 44.3863 349.725 45.3848 348.27L49.5067 351.101C50.4676 349.701 51.4568 348.322 52.4734 346.965L48.4717 343.968C49.5308 342.554 50.6184 341.163 51.7337 339.795L55.6085 342.955C56.6812 341.64 57.7806 340.347 58.9058 339.078L55.1642 335.761C56.3353 334.44 57.5333 333.143 58.7574 331.871L62.3596 335.339C63.5362 334.117 64.7379 332.919 65.9639 331.746L62.5072 328.133C63.7824 326.913 65.0828 325.719 66.4075 324.552L69.7129 328.303C70.9856 327.182 72.2816 326.086 73.6002 325.018L70.4518 321.133C71.8225 320.022 73.2168 318.939 74.6336 317.884L77.6197 321.894C78.9796 320.882 80.3612 319.896 81.7636 318.939L78.9451 314.81C80.4019 313.815 81.8803 312.85 83.3796 311.915L86.0254 316.158C87.4634 315.261 88.9214 314.393 90.3984 313.555L87.9299 309.206C89.4634 308.336 91.0167 307.496 92.5889 306.687L94.8754 311.134C96.3822 310.359 97.907 309.615 99.4491 308.901L97.3488 304.363C98.9489 303.623 100.567 302.914 102.202 302.238L104.112 306.859C105.678 306.211 107.26 305.595 108.857 305.011L107.14 300.315C108.795 299.711 110.465 299.139 112.151 298.601L113.671 303.364C115.283 302.85 116.909 302.368 118.549 301.918L117.228 297.096C118.926 296.631 120.639 296.2 122.364 295.803L123.484 300.676C125.132 300.297 126.794 299.951 128.467 299.639L127.55 294.724C129.281 294.401 131.024 294.113 132.778 293.861L133.49 298.81C135.165 298.568 136.85 298.361 138.546 298.188L138.037 293.214C139.785 293.035 141.542 292.891 143.31 292.784L143.614 297.774C145.299 297.672 146.994 297.603 148.696 297.568L148.595 292.569C149.478 292.551 150.363 292.542 151.25 292.542H153.715V297.542H158.645V292.542H163.575V297.542H168.505V292.542H173.435V297.542H178.365V292.542H183.295V297.542H188.225V292.542H193.155V297.542H198.085V292.542H203.015V297.542H207.945V292.542H212.875V297.542H217.805V292.542H222.735V297.542H227.665V292.542H232.595V297.542H237.525V292.542H242.455V297.542H247.385V292.542H252.315V297.542H257.245V292.542H262.175V297.542H267.105V292.542H272.035V297.542H276.965V292.542H281.895V297.542H286.825V292.542H291.755V297.542H296.685V292.542H301.615V297.542H306.545V292.542H311.475V297.542H316.405V292.542H321.335V297.542H326.265V292.542H331.195V297.542H336.125V292.542H341.055V297.542H345.985V292.542H350.915V297.542H355.845V292.542H360.775V297.542H365.705V292.542H370.635V297.542H375.565V292.542H380.495V297.542H385.425V292.542H390.355V297.542H395.285V292.542H397.75C398.637 292.542 399.522 292.551 400.405 292.569L400.304 297.568C402.006 297.603 403.701 297.672 405.386 297.774L405.69 292.784C407.458 292.891 409.215 293.035 410.963 293.214L410.454 298.188C412.15 298.361 413.835 298.568 415.51 298.81L416.222 293.861C417.976 294.113 419.719 294.401 421.45 294.724L420.533 299.639C422.206 299.951 423.868 300.297 425.516 300.676L426.636 295.803C428.362 296.2 430.074 296.631 431.772 297.096L430.451 301.918C432.091 302.368 433.717 302.85 435.329 303.364L436.849 298.601C438.535 299.139 440.205 299.711 441.86 300.315L440.143 305.011C441.74 305.595 443.322 306.211 444.888 306.859L446.798 302.238C448.433 302.914 450.051 303.623 451.651 304.363L449.551 308.901C451.093 309.615 452.618 310.359 454.125 311.134L456.411 306.687C457.983 307.496 459.537 308.336 461.07 309.206L458.602 313.555C460.079 314.393 461.537 315.261 462.975 316.158L465.62 311.915C467.12 312.85 468.598 313.815 470.055 314.81L467.236 318.939C468.639 319.896 470.02 320.882 471.38 321.894L474.366 317.884C475.783 318.939 477.177 320.022 478.548 321.133L475.4 325.018C476.718 326.086 478.014 327.182 479.287 328.303L482.593 324.552C483.917 325.719 485.218 326.913 486.493 328.133L483.036 331.746C484.262 332.919 485.464 334.117 486.64 335.339L490.243 331.871C491.467 333.143 492.665 334.44 493.836 335.761L490.094 339.078C491.219 340.347 492.319 341.64 493.391 342.955L497.266 339.795C498.382 341.163 499.469 342.554 500.528 343.968L496.527 346.965C497.543 348.322 498.532 349.701 499.493 351.101L503.615 348.27C504.614 349.725 505.583 351.201 506.522 352.697L502.287 355.355C503.188 356.79 504.06 358.246 504.902 359.721L509.244 357.241C510.118 358.772 510.962 360.324 511.775 361.894L507.334 364.192C508.112 365.697 508.861 367.22 509.578 368.76L514.111 366.649C514.855 368.248 515.568 369.864 516.247 371.498L511.631 373.418C512.281 374.983 512.901 376.563 513.488 378.159L518.18 376.433C518.788 378.087 519.363 379.756 519.904 381.441L515.144 382.97C515.661 384.581 516.146 386.206 516.598 387.846L521.418 386.517C521.886 388.215 522.32 389.927 522.719 391.653L517.847 392.779C518.228 394.427 518.576 396.088 518.89 397.761L523.804 396.838C524.129 398.569 524.419 400.312 524.673 402.066L519.725 402.783C519.967 404.458 520.176 406.143 520.351 407.838L525.324 407.327C525.504 409.074 525.648 410.832 525.757 412.6L520.766 412.906C520.87 414.591 520.939 416.286 520.974 417.989L525.973 417.887C525.991 418.77 526 419.655 526 420.542C526 421.429 525.991 422.315 525.973 423.198L520.974 423.096C520.939 424.799 520.87 426.493 520.766 428.178L525.757 428.484C525.648 430.252 525.504 432.01 525.324 433.758L520.351 433.246C520.176 434.942 519.967 436.627 519.725 438.301L524.673 439.018C524.419 440.772 524.129 442.515 523.804 444.246L518.89 443.324C518.576 444.996 518.228 446.657 517.847 448.306L522.719 449.432C522.32 451.157 521.886 452.869 521.418 454.567L516.598 453.239C516.146 454.878 515.661 456.503 515.144 458.114L519.904 459.643C519.363 461.328 518.788 462.998 518.18 464.651L513.488 462.925C512.901 464.521 512.281 466.102 511.631 467.666L516.247 469.586C515.568 471.22 514.855 472.836 514.111 474.435L509.578 472.324C508.861 473.865 508.112 475.388 507.334 476.893L511.775 479.19C510.962 480.761 510.118 482.312 509.244 483.843L504.902 481.364C504.06 482.838 503.188 484.294 502.287 485.73L506.522 488.387C505.583 489.884 504.614 491.36 503.615 492.814L499.493 489.984C498.532 491.383 497.543 492.762 496.527 494.119L500.528 497.117C499.469 498.53 498.382 499.921 497.266 501.289L493.391 498.129C492.319 499.444 491.219 500.737 490.094 502.007L493.836 505.323C492.665 506.644 491.467 507.941 490.243 509.213L486.64 505.745C485.464 506.967 484.262 508.165 483.036 509.339L486.493 512.951C485.218 514.171 483.917 515.365 482.593 516.533L479.287 512.781C478.014 513.902 476.718 514.998 475.4 516.067L478.548 519.951C477.177 521.062 475.783 522.145 474.366 523.2L471.38 519.19C470.02 520.202 468.639 521.188 467.236 522.145L470.055 526.275C468.598 527.269 467.12 528.234 465.62 529.169L462.975 524.926C461.537 525.823 460.079 526.691 458.602 527.53L461.07 531.878C459.537 532.748 457.983 533.588 456.411 534.397L454.125 529.95C452.618 530.725 451.093 531.47 449.551 532.184L451.651 536.721C450.051 537.462 448.433 538.17 446.798 538.846L444.888 534.226C443.322 534.873 441.74 535.489 440.143 536.073L441.86 540.769C440.205 541.374 438.535 541.945 436.849 542.483L435.329 537.72C433.717 538.234 432.091 538.717 430.451 539.166L431.772 543.988C430.074 544.453 428.361 544.885 426.636 545.281L425.516 540.408C423.868 540.787 422.206 541.133 420.533 541.445L421.45 546.36C419.719 546.683 417.976 546.971 416.222 547.224L415.51 542.275C413.835 542.516 412.15 542.723 410.454 542.897L410.963 547.871C409.215 548.049 407.457 548.193 405.69 548.301L405.386 543.31C403.701 543.413 402.006 543.482 400.303 543.516L400.405 548.515C399.522 548.533 398.637 548.542 397.75 548.542H395.285V543.542H390.355V548.542H385.425V543.542H380.495V548.542H375.565V543.542H370.635V548.542H365.705V543.542H360.775V548.542H355.845V543.542H350.915V548.542H345.985V543.542H341.055V548.542H336.125V543.542H331.195V548.542H326.265V543.542H321.335V548.542H316.405V543.542H311.475V548.542H306.545V543.542H301.615V548.542H296.685V543.542H291.755V548.542H286.825V543.542H281.895V548.542H276.965V543.542H272.035V548.542H267.105V543.542H262.175V548.542H257.245V543.542H252.315V548.542H247.385V543.542H242.455V548.542H237.525V543.542H232.595V548.542H227.665V543.542H222.735V548.542H217.805V543.542H212.875V548.542H207.945V543.542H203.015V548.542H198.085V543.542H193.155V548.542H188.225V543.542H183.295V548.542H178.365V543.542H173.435V548.542H168.505V543.542H163.575V548.542H158.645V543.542H153.715Z" fill="#2E266D"/>
<ellipse cx="274.5" cy="111.5" rx="96.5" ry="98.5" fill="#5271FF"/>
<mask id="mask0_9_48" style="mask-type:luminance" maskUnits="userSpaceOnUse" x="186" y="24" width="175" height="175">
<path d="M360.594 24.645L186.975 24.6872L187.018 198.306L360.637 198.264L360.594 24.645Z" fill="white"/>
</mask>
<g mask="url(#mask0_9_48)">
<mask id="mask1_9_48" style="mask-type:luminance" maskUnits="userSpaceOnUse" x="186" y="24" width="175" height="175">
<path d="M273.785 24.6661C321.728 24.6544 360.604 63.5109 360.616 111.454C360.627 159.398 321.771 198.273 273.827 198.285C225.884 198.297 187.008 159.44 186.997 111.497C186.985 63.5532 225.841 24.6778 273.785 24.6661Z" fill="white"/>
</mask>
<g mask="url(#mask1_9_48)">
<path d="M360.594 24.645L186.975 24.6872L187.018 198.306L360.637 198.264L360.594 24.645Z" fill="white"/>
</g>
</g>
<mask id="mask2_9_48" style="mask-type:luminance" maskUnits="userSpaceOnUse" x="165" y="6" width="218" height="276">
<path d="M382.474 6L165.66 6.0528L165.727 281.239L382.541 281.186L382.474 6Z" fill="white"/>
</mask>
<g mask="url(#mask2_9_48)">
<path d="M274.091 201.825C322.258 201.813 361.291 162.721 361.279 114.519C361.268 66.305 322.215 27.2319 274.049 27.2437C225.897 27.2554 186.866 66.3475 186.878 114.561C186.89 162.763 225.94 201.836 274.091 201.825ZM274.044 6.03708C333.908 6.0225 382.45 54.5908 382.464 114.513C382.488 209.886 275.812 280.116 274.125 281.225C274.111 281.225 274.111 281.225 274.111 281.225C274.111 281.225 165.716 210.694 165.693 114.566C165.678 54.6436 214.194 6.05165 274.044 6.03708Z" fill="#2E266D"/>
<path d="M287.269 108.733L260.896 108.74C259.575 108.74 258.5 109.815 258.501 111.141L258.507 136.781C258.507 138.105 259.582 139.181 260.904 139.181L287.276 139.174C288.6 139.174 289.673 138.098 289.672 136.774L289.666 111.133C289.666 109.807 288.592 108.733 287.269 108.733ZM220.179 96.4145L269.952 62.9799C271.071 62.2221 272.539 61.7989 274.079 61.7985C275.603 61.7982 277.072 62.2207 278.191 62.9612L327.979 96.3882C328.066 96.4451 328.168 96.5187 328.241 96.6069C330.45 98.815 330.189 100.59 329.825 101.451C329.462 102.323 328.402 103.778 325.278 103.779L312.899 103.782L312.91 149.771C312.911 153.946 309.526 157.351 305.355 157.352L242.834 157.367C238.663 157.368 235.278 153.965 235.277 149.79L235.266 103.8L222.886 103.803C219.76 103.804 218.7 102.35 218.338 101.478C217.987 100.618 217.712 98.8424 219.919 96.6332C220.007 96.545 220.095 96.4714 220.179 96.4145Z" fill="#2E266D"/>
</g>
<path d="M133.326 424.488H167.931L168.421 430.769L158.301 433.248C158.301 433.689 158.246 434.68 158.137 436.223C158.028 437.766 157.92 440.19 157.811 443.496C157.811 446.802 157.811 451.485 157.811 457.545V483C157.92 489.942 159.008 495.562 161.075 499.86C163.252 504.157 166.19 507.298 169.89 509.281C173.698 511.154 178.106 512.091 183.111 512.091C187.899 512.091 192.035 511.099 195.517 509.116C199.108 507.022 201.883 503.771 203.841 499.364C205.8 494.956 206.78 489.116 206.78 481.843V460.521C206.78 455.562 206.725 451.209 206.616 447.463C206.508 443.606 206.399 440.466 206.29 438.041C206.181 435.507 206.018 433.909 205.8 433.248L194.374 430.769L194.864 424.488H226.53L227.02 430.769L217.063 433.248C217.063 433.579 217.009 434.625 216.9 436.388C216.791 438.152 216.682 440.961 216.573 444.818C216.573 448.565 216.573 453.799 216.573 460.521V482.669C216.573 491.926 215.05 499.529 212.003 505.479C208.956 511.43 204.766 515.837 199.434 518.702C194.211 521.567 188.226 523 181.479 523C169.618 523 160.314 519.694 153.567 513.083C146.929 506.361 143.61 496.994 143.61 484.983V457.545C143.61 451.485 143.555 446.802 143.447 443.496C143.338 440.08 143.229 437.601 143.12 436.058C143.12 434.515 143.066 433.579 142.957 433.248L133 430.769L133.326 424.488Z" fill="white"/>
<path d="M243.017 521.512L242.69 515.231L251.994 512.917C252.103 512.477 252.157 511.375 252.157 509.612C252.266 507.848 252.321 505.314 252.321 502.008C252.429 498.592 252.484 494.405 252.484 489.446L252.647 454.57C252.647 450.163 252.593 446.471 252.484 443.496C252.484 440.41 252.429 437.986 252.321 436.223C252.321 434.46 252.266 433.413 252.157 433.083L242.037 430.769L242.527 424.488H294.107C295.74 424.488 297.372 424.488 299.004 424.488C300.745 424.377 302.541 424.267 304.391 424.157C306.349 424.047 308.363 423.937 310.43 423.826L313.858 445.645L306.349 446.802L300.8 432.917C300.038 432.697 299.113 432.587 298.025 432.587C297.045 432.477 295.957 432.421 294.76 432.421H276.642C275.009 432.421 273.16 432.477 271.092 432.587C269.133 432.587 267.555 432.697 266.358 432.917C266.358 433.358 266.304 434.185 266.195 435.397C266.195 436.609 266.195 438.152 266.195 440.025C266.195 441.898 266.195 443.992 266.195 446.306C266.195 448.51 266.195 450.934 266.195 453.579L266.358 489.612C266.358 494.791 266.358 499.033 266.358 502.339C266.467 505.645 266.576 508.124 266.685 509.777C266.794 511.43 266.902 512.477 267.011 512.917L280.233 514.901L279.906 521.512H243.017ZM294.923 488.95L292.801 477.05C292.148 476.829 291.115 476.664 289.7 476.554C288.394 476.444 286.816 476.388 284.966 476.388H271.255C270.167 476.388 268.916 476.444 267.501 476.554C266.195 476.554 264.617 476.609 262.767 476.719V467.628C264.073 467.738 265.433 467.848 266.848 467.959C268.371 468.069 269.84 468.124 271.255 468.124H284.966C287.143 468.124 288.83 468.069 290.027 467.959C291.332 467.738 292.257 467.573 292.801 467.463L294.923 456.223H301.942V488.95H294.923Z" fill="white"/>
<path d="M376.048 523C366.581 523 357.93 521.182 350.095 517.545C342.369 513.799 336.166 508.289 331.487 501.017C326.808 493.634 324.468 484.543 324.468 473.744C324.468 466.802 325.665 460.3 328.059 454.24C330.453 448.069 333.935 442.669 338.506 438.041C343.185 433.303 348.843 429.612 355.481 426.967C362.119 424.322 369.682 423 378.17 423C382.632 423 387.366 423.441 392.371 424.322C397.377 425.204 401.839 426.471 405.756 428.124L406.899 450.769L399.553 451.43L394.656 435.727C392.589 434.295 389.868 433.248 386.495 432.587C383.122 431.815 379.857 431.43 376.701 431.43C368.54 431.43 361.847 433.248 356.624 436.884C351.51 440.41 347.701 445.149 345.198 451.099C342.804 457.05 341.607 463.606 341.607 470.769C341.607 480.135 343.185 488.069 346.341 494.57C349.605 501.072 353.958 505.975 359.399 509.281C364.949 512.587 371.043 514.24 377.681 514.24C381.163 514.24 384.319 513.854 387.148 513.083C389.977 512.311 392.698 511.154 395.309 509.612L402.491 494.074L410 494.901L405.43 515.727C401.73 517.711 397.323 519.419 392.208 520.851C387.094 522.284 381.707 523 376.048 523Z" fill="white"/>
<path d="M115.274 414.594L115 409.36L121.712 407.432L149.932 336.08L157.877 331.259L187.74 407.432L194.589 409.36L194.178 414.594H166.507L166.233 409.36L174.589 407.432L166.507 387.046L165 382.775L150.068 345.309L153.219 343.518L138.973 382.775L137.466 386.908L130.205 407.432L138.562 409.36L138.288 414.594H115.274ZM134.452 389.112V381.811C136.187 381.903 138.562 381.995 141.575 382.087C144.589 382.179 148.288 382.225 152.671 382.225C156.963 382.225 160.616 382.179 163.63 382.087C166.735 381.995 169.11 381.903 170.753 381.811V389.112C167.648 389.02 164.543 388.974 161.438 388.974C158.425 388.882 155.502 388.836 152.671 388.836C149.932 388.836 147.055 388.882 144.041 388.974C141.119 388.974 137.922 389.02 134.452 389.112Z" fill="white"/>
<path d="M198.425 414.594L198.151 409.498L207.055 407.569C207.237 406.651 207.374 405.136 207.466 403.024C207.557 400.912 207.603 398.111 207.603 394.621C207.694 391.132 207.74 386.862 207.74 381.811V364.593C207.74 361.104 207.694 357.522 207.603 353.849C207.603 350.176 207.557 346.732 207.466 343.518C207.466 340.213 207.42 337.412 207.329 335.116C207.329 332.728 207.283 331.167 207.192 330.433L197.055 329.055L196.781 324.648L216.37 319L218.973 320.928C218.881 324.785 218.79 328.642 218.699 332.499C218.607 336.356 218.516 340.626 218.425 345.309C218.425 349.992 218.425 355.64 218.425 362.252L218.288 384.428C218.288 389.846 218.333 394.759 218.425 399.167C218.607 403.483 218.79 406.284 218.973 407.569L227.877 409.498L227.603 414.594H198.425Z" fill="white"/>
<path d="M293.767 404.952L302.397 407.156V411.702L284.589 416.11L282.534 414.319L282.671 405.641L282.26 405.503C279.612 409.268 276.872 411.931 274.041 413.492C271.301 414.962 268.333 415.696 265.137 415.696C259.018 415.696 253.904 413.814 249.795 410.049C245.685 406.192 243.63 400.453 243.63 392.831V380.985C243.63 378.414 243.539 375.934 243.356 373.547C243.265 371.067 243.128 368.588 242.945 366.108L233.63 364.18V359.634L252.26 354.538L254.726 356.742C254.543 359.589 254.406 362.619 254.315 365.833C254.224 369.047 254.178 372.399 254.178 375.888L254.041 391.04C254.041 396.734 255.365 400.82 258.014 403.299C260.662 405.687 264.041 406.881 268.151 406.881C270.616 406.881 273.128 406.238 275.685 404.952C278.242 403.667 280.479 401.463 282.397 398.341V382.362C282.397 380.342 282.352 378.368 282.26 376.439C282.26 374.419 282.215 372.537 282.123 370.792C282.032 368.955 281.895 367.394 281.712 366.108L271.712 364.18V359.634L291.027 354.538L293.082 356.466C292.991 359.038 292.9 361.333 292.808 363.354C292.808 365.374 292.808 367.394 292.808 369.414C292.808 371.343 292.808 373.547 292.808 376.026V385.806C292.808 390.856 292.9 394.943 293.082 398.065C293.356 401.095 293.584 403.391 293.767 404.952Z" fill="white"/>
<path d="M337.74 446C329.338 446 322.671 444.623 317.74 441.868C312.808 439.113 310.342 435.44 310.342 430.848C310.342 427.726 311.575 424.833 314.041 422.17C316.507 419.507 320.479 416.798 325.959 414.043L331.164 415.145C328.151 416.89 325.822 418.91 324.178 421.206C322.534 423.594 321.712 426.119 321.712 428.782C321.712 432.455 323.174 435.302 326.096 437.322C329.11 439.342 333.174 440.352 338.288 440.352C344.224 440.352 349.018 439.067 352.671 436.496C356.324 433.924 358.151 430.619 358.151 426.578C358.151 423.456 357.009 421.114 354.726 419.553C352.534 418.084 348.881 417.166 343.767 416.798L329.11 415.559L327.055 415.008C323.676 415.008 320.799 414.135 318.425 412.39C316.142 410.554 315 408.35 315 405.779C315 403.299 316.187 400.866 318.562 398.478C320.936 396.091 324.224 393.979 328.425 392.142L330.205 394.897C328.47 396.091 327.192 397.193 326.37 398.203C325.548 399.121 325.137 400.039 325.137 400.958C325.137 402.243 325.685 403.345 326.781 404.264C327.968 405.182 329.612 405.733 331.712 405.916L349.384 407.707C355.685 408.35 360.479 409.957 363.767 412.528C367.055 415.099 368.699 418.773 368.699 423.548C368.699 427.772 367.329 431.583 364.589 434.98C361.849 438.378 358.151 441.041 353.493 442.97C348.836 444.99 343.584 446 337.74 446ZM338.836 397.514C333.995 397.514 329.658 396.642 325.822 394.897C322.078 393.152 319.155 390.765 317.055 387.734C314.954 384.612 313.904 381.077 313.904 377.128C313.904 372.812 315 368.955 317.192 365.557C319.384 362.068 322.352 359.359 326.096 357.431C329.84 355.41 334.041 354.4 338.699 354.4C343.356 354.4 347.511 355.319 351.164 357.155C354.909 358.992 357.831 361.563 359.932 364.869C362.032 368.083 363.082 371.756 363.082 375.888C363.082 379.929 361.986 383.602 359.795 386.908C357.694 390.214 354.817 392.831 351.164 394.759C347.511 396.596 343.402 397.514 338.836 397.514ZM339.521 392.004C343.265 392.004 346.233 390.627 348.425 387.872C350.616 385.117 351.712 381.444 351.712 376.852C351.712 371.71 350.479 367.578 348.014 364.456C345.639 361.333 342.489 359.772 338.562 359.772C334.817 359.772 331.758 361.242 329.384 364.18C327.009 367.119 325.822 370.93 325.822 375.613C325.822 380.48 327.055 384.428 329.521 387.459C332.078 390.489 335.411 392.004 339.521 392.004ZM371.301 364.318L355 363.216L349.658 357.706L371.301 355.502V364.318Z" fill="white"/>
<path d="M399.795 415.696C396.142 415.696 392.9 414.962 390.068 413.492C387.237 412.023 385 410.141 383.356 407.845C381.804 405.549 381.027 403.162 381.027 400.682C381.027 397.56 382.032 394.989 384.041 392.969C386.05 390.948 389.338 389.204 393.904 387.734L414.726 380.709V373.684C414.726 371.389 414.041 369.322 412.671 367.486C411.301 365.557 409.475 364.042 407.192 362.94C404.909 361.838 402.352 361.287 399.521 361.287C397.237 361.287 395.685 361.792 394.863 362.803C394.041 363.721 393.539 365.603 393.356 368.45L393.082 374.235C389.795 374.97 387.009 374.878 384.726 373.96C382.443 372.95 381.301 371.343 381.301 369.139C381.301 367.578 381.941 366.017 383.219 364.456C384.589 362.894 386.37 361.425 388.562 360.048C390.753 358.578 393.128 357.339 395.685 356.329C398.242 355.319 400.753 354.63 403.219 354.262C409.977 354.262 415.365 356.053 419.384 359.634C423.493 363.216 425.594 367.899 425.685 373.684L425.411 396.825C425.411 398.57 425.457 400.269 425.548 401.922C425.731 403.575 425.959 404.815 426.233 405.641L435 407.294V411.564L428.288 414.043C427.009 414.503 425.822 414.87 424.726 415.145C423.63 415.513 422.717 415.696 421.986 415.696C419.155 415.696 417.329 414.089 416.507 410.875L415 405.503H417.055C414.041 408.901 411.119 411.472 408.288 413.217C405.548 414.87 402.717 415.696 399.795 415.696ZM403.493 407.569C405.594 407.569 407.557 407.11 409.384 406.192C411.21 405.182 412.991 403.667 414.726 401.646V387.183L399.384 391.316C397.192 391.867 395.594 392.739 394.589 393.933C393.676 395.127 393.219 396.642 393.219 398.478C393.219 400.774 394.224 402.886 396.233 404.815C398.333 406.651 400.753 407.569 403.493 407.569Z" fill="white"/>
</svg>
