<svg width="581" height="383" viewBox="0 0 581 383" fill="none" xmlns="http://www.w3.org/2000/svg">
<path d="M111.5 285V290H109C108.123 290 107.249 289.989 106.377 289.966L106.506 284.968C104.839 284.925 103.183 284.839 101.539 284.711L101.152 289.696C99.4036 289.561 97.6677 289.38 95.9454 289.155L96.5921 284.197C94.9407 283.982 93.3026 283.724 91.6789 283.425L90.773 288.342C89.0495 288.024 87.3413 287.663 85.6497 287.258L86.8131 282.395C85.195 282.008 83.593 281.58 82.0083 281.111L80.5901 285.905C78.9108 285.409 77.2499 284.869 75.6088 284.288L77.278 279.575C75.7111 279.02 74.163 278.425 72.6352 277.791L70.7199 282.41C69.1037 281.74 67.509 281.028 65.937 280.277L68.0927 275.766C66.5939 275.05 65.1168 274.295 63.6627 273.504L61.2731 277.896C59.7373 277.061 58.226 276.186 56.7404 275.274L59.3568 271.013C57.9421 270.144 56.5519 269.24 55.1874 268.3L52.3518 272.418C50.9131 271.427 49.5017 270.4 48.1189 269.338L51.1655 265.373C49.8499 264.362 48.5616 263.317 47.3017 262.24L44.0527 266.041C42.726 264.907 41.4293 263.738 40.164 262.537L43.6063 258.911C42.4036 257.769 41.2308 256.596 40.0891 255.394L36.4628 258.836C35.2617 257.571 34.0934 256.274 32.9592 254.947L36.7597 251.698C35.6827 250.438 34.638 249.15 33.627 247.834L29.6625 250.881C28.5998 249.498 27.5725 248.087 26.5819 246.648L30.7 243.813C29.7605 242.448 28.8557 241.058 27.9869 239.643L23.7262 242.26C22.8139 240.774 21.9393 239.263 21.1037 237.727L25.4957 235.337C24.7045 233.883 23.9503 232.406 23.2341 230.907L18.7227 233.063C17.9715 231.491 17.2602 229.896 16.59 228.28L21.2086 226.365C20.5751 224.837 19.9802 223.289 19.4253 221.722L14.7121 223.391C14.1309 221.75 13.5913 220.089 13.0946 218.41L17.8892 216.992C17.4205 215.407 16.9919 213.805 16.6048 212.187L11.742 213.35C11.3373 211.659 10.9756 209.95 10.6581 208.227L15.5753 207.321C15.2762 205.697 15.0184 204.059 14.803 202.408L9.84497 203.055C9.6203 201.332 9.4395 199.596 9.30369 197.848L14.2887 197.461C14.1609 195.817 14.0751 194.161 14.0321 192.494L9.03376 192.623C9.0113 191.751 9 190.877 9 190C9 189.123 9.0113 188.249 9.03376 187.377L14.0321 187.506C14.0751 185.839 14.1609 184.183 14.2887 182.539L9.30369 182.152C9.4395 180.404 9.6203 178.668 9.84497 176.945L14.803 177.592C15.0184 175.941 15.2762 174.303 15.5753 172.679L10.6581 171.773C10.9756 170.049 11.3373 168.341 11.742 166.65L16.6048 167.813C16.9919 166.195 17.4205 164.593 17.8892 163.008L13.0946 161.59C13.5913 159.911 14.1309 158.25 14.7121 156.609L19.4253 158.278C19.9802 156.711 20.5751 155.163 21.2087 153.635L16.59 151.72C17.2602 150.104 17.9715 148.509 18.7227 146.937L23.2341 149.093C23.9503 147.594 24.7045 146.117 25.4957 144.663L21.1037 142.273C21.9393 140.737 22.8139 139.226 23.7262 137.74L27.9869 140.357C28.8557 138.942 29.7605 137.552 30.7 136.187L26.5819 133.352C27.5725 131.913 28.5998 130.502 29.6625 129.119L33.627 132.166C34.638 130.85 35.6827 129.562 36.7597 128.302L32.9591 125.053C34.0934 123.726 35.2617 122.429 36.4628 121.164L40.0891 124.606C41.2308 123.404 42.4036 122.231 43.6063 121.089L40.164 117.463C41.4293 116.262 42.726 115.093 44.0527 113.959L47.3017 117.76C48.5616 116.683 49.8499 115.638 51.1655 114.627L48.1189 110.662C49.5017 109.6 50.9131 108.573 52.3518 107.582L55.1874 111.7C56.5519 110.76 57.9421 109.856 59.3568 108.987L56.7404 104.726C58.226 103.814 59.7373 102.939 61.2731 102.104L63.6627 106.496C65.1168 105.705 66.5939 104.95 68.0927 104.234L65.937 99.7227C67.509 98.9715 69.1037 98.2602 70.7199 97.59L72.6352 102.209C74.1631 101.575 75.7111 100.98 77.278 100.425L75.6088 95.7121C77.25 95.1309 78.9108 94.5913 80.5901 94.0946L82.0083 98.8892C83.593 98.4205 85.195 97.9919 86.8131 97.6048L85.6497 92.742C87.3413 92.3373 89.0495 91.9756 90.7731 91.6581L91.6789 96.5753C93.3026 96.2762 94.9407 96.0184 96.5921 95.803L95.9454 90.845C97.6678 90.6203 99.4036 90.4395 101.152 90.3037L101.539 95.2887C103.183 95.1609 104.839 95.0751 106.506 95.0321L106.377 90.0338C107.249 90.0113 108.123 90 109 90H111.5V95H116.5V90H121.5V95H126.5V90H131.5V95H136.5V90H141.5V95H146.5V90H151.5V95H156.5V90H161.5V95H166.5V90H171.5V95H176.5V90H181.5V95H186.5V90H191.5V95H196.5V90H201.5V95H206.5V90H211.5V95H216.5V90H221.5V95H226.5V90H231.5V95H236.5V90H241.5V95H246.5V90H251.5V95H256.5V90H261.5V95H266.5V90H271.5V95H276.5V90H281.5V95H286.5V90H291.5V95H296.5V90H299C299.877 90 300.751 90.0113 301.623 90.0338L301.494 95.0321C303.161 95.0751 304.817 95.1609 306.461 95.2887L306.848 90.3037C308.596 90.4395 310.332 90.6203 312.055 90.845L311.408 95.803C313.059 96.0184 314.697 96.2762 316.321 96.5753L317.227 91.6581C318.951 91.9756 320.659 92.3373 322.35 92.742L321.187 97.6048C322.805 97.9919 324.407 98.4205 325.992 98.8892L327.41 94.0946C329.089 94.5913 330.75 95.1309 332.391 95.7121L330.722 100.425C332.289 100.98 333.837 101.575 335.365 102.209L337.28 97.59C338.896 98.2602 340.491 98.9715 342.063 99.7227L339.907 104.234C341.406 104.95 342.883 105.705 344.337 106.496L346.727 102.104C348.263 102.939 349.774 103.814 351.26 104.726L348.643 108.987C350.058 109.856 351.448 110.76 352.813 111.7L355.648 107.582C357.087 108.573 358.498 109.6 359.881 110.662L356.834 114.627C358.15 115.638 359.438 116.683 360.698 117.76L363.947 113.959C365.274 115.093 366.571 116.262 367.836 117.463L364.394 121.089C365.596 122.231 366.769 123.404 367.911 124.606L371.537 121.164C372.738 122.429 373.907 123.726 375.041 125.053L371.24 128.302C372.317 129.562 373.362 130.85 374.373 132.166L378.338 129.119C379.4 130.502 380.427 131.913 381.418 133.352L377.3 136.187C378.24 137.552 379.144 138.942 380.013 140.357L384.274 137.74C385.186 139.226 386.061 140.737 386.896 142.273L382.504 144.663C383.295 146.117 384.05 147.594 384.766 149.093L389.277 146.937C390.028 148.509 390.74 150.104 391.41 151.72L386.791 153.635C387.425 155.163 388.02 156.711 388.575 158.278L393.288 156.609C393.869 158.25 394.409 159.911 394.905 161.59L390.111 163.008C390.58 164.593 391.008 166.195 391.395 167.813L396.258 166.65C396.663 168.341 397.024 170.05 397.342 171.773L392.425 172.679C392.724 174.303 392.982 175.941 393.197 177.592L398.155 176.945C398.38 178.668 398.56 180.404 398.696 182.152L393.711 182.539C393.839 184.183 393.925 185.839 393.968 187.506L398.966 187.377C398.989 188.249 399 189.123 399 190C399 190.877 398.989 191.751 398.966 192.623L393.968 192.494C393.925 194.161 393.839 195.817 393.711 197.461L398.696 197.848C398.56 199.596 398.38 201.332 398.155 203.055L393.197 202.408C392.982 204.059 392.724 205.697 392.425 207.321L397.342 208.227C397.024 209.951 396.663 211.659 396.258 213.35L391.395 212.187C391.008 213.805 390.58 215.407 390.111 216.992L394.905 218.41C394.409 220.089 393.869 221.75 393.288 223.391L388.575 221.722C388.02 223.289 387.425 224.837 386.791 226.365L391.41 228.28C390.74 229.896 390.028 231.491 389.277 233.063L384.766 230.907C384.05 232.406 383.295 233.883 382.504 235.337L386.896 237.727C386.061 239.263 385.186 240.774 384.274 242.26L380.013 239.643C379.144 241.058 378.24 242.448 377.3 243.813L381.418 246.648C380.427 248.087 379.4 249.498 378.338 250.881L374.373 247.834C373.362 249.15 372.317 250.438 371.24 251.698L375.041 254.947C373.907 256.274 372.738 257.571 371.537 258.836L367.911 255.394C366.769 256.596 365.596 257.769 364.394 258.911L367.836 262.537C366.571 263.738 365.274 264.907 363.947 266.041L360.698 262.24C359.438 263.317 358.15 264.362 356.834 265.373L359.881 269.338C358.498 270.4 357.087 271.427 355.648 272.418L352.813 268.3C351.448 269.24 350.058 270.144 348.643 271.013L351.26 275.274C349.774 276.186 348.263 277.061 346.727 277.896L344.337 273.504C342.883 274.295 341.406 275.05 339.907 275.766L342.063 280.277C340.491 281.028 338.896 281.74 337.28 282.41L335.365 277.791C333.837 278.425 332.289 279.02 330.722 279.575L332.391 284.288C330.75 284.869 329.089 285.409 327.41 285.905L325.992 281.111C324.407 281.58 322.805 282.008 321.187 282.395L322.35 287.258C320.659 287.663 318.951 288.024 317.227 288.342L316.321 283.425C314.697 283.724 313.059 283.982 311.408 284.197L312.055 289.155C310.332 289.38 308.596 289.561 306.848 289.696L306.461 284.711C304.817 284.839 303.161 284.925 301.494 284.968L301.623 289.966C300.751 289.989 299.877 290 299 290H296.5V285H291.5V290H286.5V285H281.5V290H276.5V285H271.5V290H266.5V285H261.5V290H256.5V285H251.5V290H246.5V285H241.5V290H236.5V285H231.5V290H226.5V285H221.5V290H216.5V285H211.5V290H206.5V285H201.5V290H196.5V285H191.5V290H186.5V285H181.5V290H176.5V285H171.5V290H166.5V285H161.5V290H156.5V285H151.5V290H146.5V285H141.5V290H136.5V285H131.5V290H126.5V285H121.5V290H116.5V285H111.5Z" fill="#2E266D"/>
<path d="M100.24 192.101H125.725L126.086 196.749L118.633 198.583C118.633 198.91 118.593 199.644 118.513 200.785C118.433 201.927 118.352 203.721 118.272 206.167C118.272 208.613 118.272 212.079 118.272 216.564V235.4C118.352 240.537 119.154 244.696 120.676 247.876C122.279 251.056 124.443 253.38 127.168 254.848C129.973 256.234 133.219 256.927 136.905 256.927C140.431 256.927 143.477 256.193 146.041 254.726C148.686 253.176 150.73 250.771 152.172 247.509C153.615 244.247 154.336 239.926 154.336 234.544V218.765C154.336 215.096 154.296 211.875 154.216 209.102C154.136 206.248 154.055 203.925 153.975 202.131C153.895 200.255 153.775 199.073 153.615 198.583L145.2 196.749L145.56 192.101H168.882L169.242 196.749L161.909 198.583C161.909 198.828 161.869 199.603 161.789 200.907C161.709 202.212 161.629 204.291 161.549 207.145C161.549 209.918 161.549 213.791 161.549 218.765V235.155C161.549 242.005 160.427 247.631 158.183 252.035C155.939 256.438 152.853 259.7 148.926 261.82C145.08 263.94 140.672 265 135.703 265C126.968 265 120.115 262.554 115.147 257.661C110.258 252.687 107.814 245.756 107.814 236.868V216.564C107.814 212.079 107.774 208.613 107.694 206.167C107.613 203.639 107.533 201.804 107.453 200.663C107.453 199.521 107.413 198.828 107.333 198.583L100 196.749L100.24 192.101Z" fill="white"/>
<path d="M181.023 263.899L180.783 259.251L187.635 257.539C187.715 257.213 187.755 256.397 187.755 255.093C187.835 253.788 187.875 251.912 187.875 249.466C187.955 246.938 187.995 243.84 187.995 240.17L188.115 214.362C188.115 211.1 188.075 208.369 187.995 206.167C187.995 203.884 187.955 202.09 187.875 200.785C187.875 199.48 187.835 198.706 187.755 198.461L180.302 196.749L180.662 192.101H218.649C219.852 192.101 221.054 192.101 222.256 192.101C223.538 192.019 224.86 191.938 226.223 191.856C227.665 191.775 229.148 191.693 230.671 191.612L233.195 207.757L227.665 208.613L223.578 198.339C223.017 198.176 222.336 198.094 221.534 198.094C220.813 198.013 220.012 197.972 219.13 197.972H205.787C204.585 197.972 203.222 198.013 201.699 198.094C200.257 198.094 199.095 198.176 198.213 198.339C198.213 198.665 198.173 199.277 198.093 200.174C198.093 201.071 198.093 202.212 198.093 203.598C198.093 204.985 198.093 206.534 198.093 208.246C198.093 209.877 198.093 211.671 198.093 213.628L198.213 240.293C198.213 244.125 198.213 247.264 198.213 249.711C198.293 252.157 198.374 253.992 198.454 255.215C198.534 256.438 198.614 257.213 198.694 257.539L208.431 259.007L208.191 263.899H181.023ZM219.25 239.803L217.688 230.997C217.207 230.834 216.445 230.711 215.404 230.63C214.442 230.548 213.28 230.507 211.918 230.507H201.82C201.018 230.507 200.097 230.548 199.055 230.63C198.093 230.63 196.931 230.671 195.569 230.752V224.025C196.53 224.106 197.532 224.188 198.574 224.269C199.696 224.351 200.778 224.392 201.82 224.392H211.918C213.52 224.392 214.763 224.351 215.644 224.269C216.606 224.106 217.287 223.984 217.688 223.902L219.25 215.585H224.42V239.803H219.25Z" fill="white"/>
<path d="M278.996 265C272.024 265 265.652 263.655 259.882 260.964C254.192 258.191 249.624 254.114 246.178 248.732C242.732 243.269 241.009 236.542 241.009 228.55C241.009 223.413 241.89 218.602 243.654 214.117C245.417 209.551 247.981 205.555 251.347 202.131C254.793 198.624 258.961 195.893 263.849 193.936C268.738 191.979 274.308 191 280.559 191C283.844 191 287.331 191.326 291.017 191.979C294.704 192.631 297.989 193.569 300.874 194.792L301.716 211.549L296.306 212.038L292.7 200.418C291.177 199.358 289.174 198.583 286.689 198.094C284.205 197.523 281.801 197.238 279.477 197.238C273.466 197.238 268.537 198.583 264.691 201.274C260.924 203.884 258.119 207.39 256.276 211.793C254.513 216.197 253.631 221.048 253.631 226.349C253.631 233.28 254.793 239.151 257.117 243.962C259.522 248.773 262.727 252.402 266.734 254.848C270.821 257.294 275.309 258.517 280.198 258.517C282.763 258.517 285.087 258.232 287.17 257.661C289.254 257.09 291.258 256.234 293.181 255.093L298.47 243.595L304 244.207L300.634 259.618C297.909 261.086 294.664 262.35 290.897 263.41C287.13 264.47 283.163 265 278.996 265Z" fill="white"/>
<path d="M87.2012 185.002L87 181.169L91.9294 179.757L112.653 127.508L118.488 123.977L140.418 179.757L145.448 181.169L145.146 185.002H124.825L124.624 181.169L130.761 179.757L124.825 164.829L123.719 161.702L112.753 134.266L115.067 132.954L104.605 161.702L103.498 164.728L98.1665 179.757L104.303 181.169L104.102 185.002H87.2012ZM101.285 166.342V160.996C102.559 161.063 104.303 161.13 106.516 161.197C108.729 161.265 111.446 161.298 114.665 161.298C117.817 161.298 120.5 161.265 122.713 161.197C124.993 161.13 126.737 161.063 127.944 160.996V166.342C125.664 166.274 123.383 166.241 121.103 166.241C118.89 166.174 116.744 166.14 114.665 166.14C112.653 166.14 110.54 166.174 108.327 166.241C106.181 166.241 103.834 166.274 101.285 166.342Z" fill="white"/>
<path d="M148.265 185.002L148.064 181.27L154.603 179.858C154.737 179.185 154.837 178.076 154.905 176.529C154.972 174.983 155.005 172.932 155.005 170.376C155.072 167.821 155.106 164.694 155.106 160.996V148.387C155.106 145.832 155.072 143.209 155.005 140.52C155.005 137.83 154.972 135.308 154.905 132.954C154.905 130.534 154.871 128.483 154.804 126.802C154.804 125.053 154.77 123.91 154.703 123.372L147.259 122.363L147.058 119.136L161.443 115L163.355 116.412C163.288 119.236 163.221 122.061 163.154 124.885C163.087 127.709 163.02 130.836 162.952 134.266C162.952 137.695 162.952 141.831 162.952 146.672L162.852 162.912C162.852 166.88 162.885 170.477 162.952 173.705C163.087 176.866 163.221 178.916 163.355 179.858L169.894 181.27L169.693 185.002H148.265Z" fill="white"/>
<path d="M218.282 177.941L224.62 179.555V182.884L211.542 186.112L210.033 184.8L210.134 178.446L209.832 178.345C207.887 181.102 205.875 183.052 203.796 184.195C201.784 185.271 199.604 185.809 197.257 185.809C192.763 185.809 189.008 184.431 185.99 181.674C182.972 178.849 181.463 174.646 181.463 169.065V160.39C181.463 158.508 181.396 156.692 181.262 154.944C181.194 153.128 181.094 151.312 180.96 149.497L174.119 148.085V144.756L187.801 141.024L189.611 142.638C189.477 144.722 189.377 146.941 189.31 149.295C189.242 151.649 189.209 154.103 189.209 156.658L189.108 167.754C189.108 171.923 190.081 174.915 192.026 176.731C193.971 178.479 196.452 179.354 199.47 179.354C201.281 179.354 203.125 178.883 205.003 177.941C206.881 177 208.524 175.386 209.932 173.1V161.399C209.932 159.92 209.899 158.474 209.832 157.062C209.832 155.582 209.798 154.204 209.731 152.926C209.664 151.581 209.564 150.438 209.429 149.497L202.086 148.085V144.756L216.27 141.024L217.779 142.436C217.712 144.319 217.645 146 217.578 147.479C217.578 148.959 217.578 150.438 217.578 151.918C217.578 153.33 217.578 154.944 217.578 156.759V163.921C217.578 167.619 217.645 170.612 217.779 172.898C217.98 175.117 218.148 176.798 218.282 177.941Z" fill="white"/>
<path d="M250.574 208C244.404 208 239.509 206.991 235.887 204.974C232.265 202.957 230.455 200.267 230.455 196.905C230.455 194.618 231.36 192.5 233.171 190.55C234.982 188.6 237.899 186.616 241.923 184.599L245.746 185.406C243.533 186.683 241.822 188.163 240.615 189.844C239.408 191.592 238.804 193.441 238.804 195.392C238.804 198.081 239.877 200.166 242.024 201.645C244.237 203.125 247.221 203.864 250.977 203.864C255.336 203.864 258.857 202.923 261.54 201.04C264.222 199.157 265.564 196.736 265.564 193.778C265.564 191.491 264.725 189.777 263.049 188.633C261.439 187.557 258.757 186.885 255.001 186.616L244.237 185.708L242.728 185.305C240.246 185.305 238.134 184.666 236.39 183.388C234.713 182.043 233.875 180.43 233.875 178.547C233.875 176.731 234.747 174.949 236.491 173.201C238.234 171.452 240.649 169.906 243.734 168.561L245.042 170.578C243.767 171.452 242.828 172.259 242.225 172.999C241.621 173.671 241.319 174.344 241.319 175.016C241.319 175.958 241.722 176.765 242.527 177.437C243.398 178.11 244.606 178.513 246.148 178.648L259.125 179.959C263.753 180.43 267.274 181.606 269.688 183.489C272.103 185.372 273.31 188.062 273.31 191.559C273.31 194.652 272.304 197.443 270.292 199.931C268.28 202.419 265.564 204.369 262.143 205.781C258.723 207.26 254.867 208 250.574 208ZM251.379 172.495C247.825 172.495 244.639 171.856 241.822 170.578C239.073 169.3 236.927 167.552 235.384 165.333C233.841 163.047 233.07 160.458 233.07 157.566C233.07 154.406 233.875 151.581 235.485 149.093C237.094 146.538 239.274 144.554 242.024 143.142C244.773 141.663 247.858 140.923 251.279 140.923C254.699 140.923 257.751 141.595 260.433 142.94C263.183 144.285 265.329 146.168 266.872 148.589C268.414 150.943 269.185 153.632 269.185 156.658C269.185 159.617 268.381 162.307 266.771 164.728C265.228 167.149 263.116 169.065 260.433 170.477C257.751 171.822 254.733 172.495 251.379 172.495ZM251.882 168.46C254.632 168.46 256.812 167.451 258.421 165.434C260.031 163.416 260.836 160.727 260.836 157.364C260.836 153.599 259.93 150.573 258.119 148.286C256.376 146 254.062 144.857 251.178 144.857C248.428 144.857 246.182 145.933 244.438 148.085C242.694 150.236 241.822 153.027 241.822 156.457C241.822 160.021 242.728 162.912 244.539 165.131C246.416 167.35 248.864 168.46 251.882 168.46ZM275.221 148.185L263.25 147.379L259.327 143.344L275.221 141.73V148.185Z" fill="white"/>
<path d="M296.146 185.809C293.463 185.809 291.082 185.271 289.003 184.195C286.924 183.119 285.281 181.741 284.074 180.06C282.934 178.379 282.364 176.63 282.364 174.815C282.364 172.528 283.102 170.645 284.577 169.166C286.053 167.687 288.467 166.409 291.82 165.333L307.111 160.189V155.044C307.111 153.363 306.608 151.85 305.602 150.505C304.596 149.093 303.255 147.984 301.578 147.177C299.902 146.37 298.024 145.966 295.945 145.966C294.268 145.966 293.128 146.336 292.524 147.076C291.921 147.748 291.552 149.127 291.418 151.211L291.217 155.448C288.802 155.986 286.757 155.919 285.08 155.246C283.403 154.507 282.565 153.33 282.565 151.716C282.565 150.573 283.035 149.43 283.973 148.286C284.979 147.143 286.287 146.067 287.897 145.059C289.506 143.983 291.25 143.075 293.128 142.335C295.006 141.595 296.85 141.091 298.661 140.822C303.624 140.822 307.581 142.133 310.532 144.756C313.55 147.379 315.092 150.808 315.159 155.044L314.958 171.99C314.958 173.268 314.992 174.512 315.059 175.722C315.193 176.933 315.36 177.841 315.562 178.446L322 179.656V182.783L317.071 184.599C316.132 184.935 315.26 185.204 314.455 185.406C313.65 185.675 312.98 185.809 312.443 185.809C310.364 185.809 309.023 184.632 308.419 182.279L307.313 178.345H308.821C306.608 180.833 304.462 182.716 302.383 183.993C300.371 185.204 298.292 185.809 296.146 185.809ZM298.862 179.858C300.405 179.858 301.847 179.522 303.188 178.849C304.529 178.11 305.837 177 307.111 175.521V164.93L295.844 167.956C294.235 168.359 293.061 168.998 292.323 169.872C291.653 170.746 291.317 171.856 291.317 173.201C291.317 174.882 292.055 176.428 293.53 177.841C295.073 179.185 296.85 179.858 298.862 179.858Z" fill="white"/>
<mask id="mask0_9_147" style="mask-type:luminance" maskUnits="userSpaceOnUse" x="422" y="99" width="135" height="135">
<path d="M556.101 99.3568L422.413 99.3893L422.445 233.078L556.134 233.045L556.101 99.3568Z" fill="white"/>
</mask>
<g mask="url(#mask0_9_147)">
<mask id="mask1_9_147" style="mask-type:luminance" maskUnits="userSpaceOnUse" x="422" y="99" width="135" height="135">
<path d="M489.257 99.3731C526.174 99.3641 556.108 129.284 556.117 166.201C556.126 203.118 526.207 233.052 489.29 233.061C452.373 233.07 422.438 203.151 422.429 166.234C422.42 129.317 452.34 99.382 489.257 99.3731Z" fill="white"/>
</mask>
<g mask="url(#mask1_9_147)">
<path d="M556.101 99.3568L422.413 99.3893L422.445 233.078L556.134 233.045L556.101 99.3568Z" fill="white"/>
</g>
</g>
<mask id="mask2_9_147" style="mask-type:luminance" maskUnits="userSpaceOnUse" x="405" y="85" width="168" height="212">
<path d="M572.948 85L406 85.0407L406.052 296.937L573 296.896L572.948 85Z" fill="white"/>
</mask>
<g mask="url(#mask2_9_147)">
<path d="M489.493 235.787C526.581 235.778 556.637 205.677 556.628 168.56C556.619 131.436 526.548 101.349 489.46 101.358C452.383 101.367 422.328 131.468 422.337 168.593C422.346 205.71 452.416 235.796 489.493 235.787ZM489.456 85.0286C535.552 85.0174 572.93 122.415 572.941 168.556C572.959 241.994 490.818 296.072 489.519 296.926C489.508 296.926 489.508 296.926 489.508 296.926C489.508 296.926 406.043 242.617 406.024 168.597C406.013 122.456 443.371 85.0398 489.456 85.0286Z" fill="#2E266D"/>
<path d="M499.64 164.106L479.333 164.111C478.315 164.111 477.487 164.938 477.488 165.959L477.492 185.703C477.493 186.722 478.321 187.551 479.338 187.551L499.645 187.546C500.664 187.545 501.491 186.717 501.49 185.697L501.485 165.954C501.485 164.932 500.659 164.106 499.64 164.106ZM447.98 154.62L486.306 128.875C487.167 128.292 488.298 127.966 489.483 127.965C490.657 127.965 491.788 128.29 492.65 128.861L530.987 154.6C531.054 154.644 531.132 154.7 531.188 154.768C532.889 156.468 532.688 157.836 532.408 158.498C532.129 159.17 531.313 160.29 528.907 160.29L519.375 160.293L519.384 195.705C519.385 198.92 516.778 201.542 513.566 201.543L465.424 201.554C462.213 201.555 459.606 198.935 459.606 195.72L459.597 160.307L450.064 160.31C447.657 160.31 446.841 159.19 446.562 158.519C446.292 157.857 446.08 156.49 447.779 154.789C447.847 154.721 447.915 154.664 447.98 154.62Z" fill="#2E266D"/>
</g>
</svg>
