<svg width="581" height="383" viewBox="0 0 581 383" fill="none" xmlns="http://www.w3.org/2000/svg">
<path d="M284.5 294V299H282C281.123 299 280.249 298.989 279.377 298.966L279.506 293.968C277.839 293.925 276.183 293.839 274.539 293.711L274.152 298.696C272.404 298.561 270.668 298.38 268.945 298.155L269.592 293.197C267.941 292.982 266.303 292.724 264.679 292.425L263.773 297.342C262.049 297.024 260.341 296.663 258.65 296.258L259.813 291.395C258.195 291.008 256.593 290.58 255.008 290.111L253.59 294.905C251.911 294.409 250.25 293.869 248.609 293.288L250.278 288.575C248.711 288.02 247.163 287.425 245.635 286.791L243.72 291.41C242.104 290.74 240.509 290.028 238.937 289.277L241.093 284.766C239.594 284.05 238.117 283.295 236.663 282.504L234.273 286.896C232.737 286.061 231.226 285.186 229.74 284.274L232.357 280.013C230.942 279.144 229.552 278.24 228.187 277.3L225.352 281.418C223.913 280.427 222.502 279.4 221.119 278.338L224.166 274.373C222.85 273.362 221.562 272.317 220.302 271.24L217.053 275.041C215.726 273.907 214.429 272.738 213.164 271.537L216.606 267.911C215.404 266.769 214.231 265.596 213.089 264.394L209.463 267.836C208.262 266.571 207.093 265.274 205.959 263.947L209.76 260.698C208.683 259.438 207.638 258.15 206.627 256.834L202.662 259.881C201.6 258.498 200.573 257.087 199.582 255.648L203.7 252.813C202.76 251.448 201.856 250.058 200.987 248.643L196.726 251.26C195.814 249.774 194.939 248.263 194.104 246.727L198.496 244.337C197.705 242.883 196.95 241.406 196.234 239.907L191.723 242.063C190.972 240.491 190.26 238.896 189.59 237.28L194.209 235.365C193.575 233.837 192.98 232.289 192.425 230.722L187.712 232.391C187.131 230.75 186.591 229.089 186.095 227.41L190.889 225.992C190.42 224.407 189.992 222.805 189.605 221.187L184.742 222.35C184.337 220.659 183.976 218.95 183.658 217.227L188.575 216.321C188.276 214.697 188.018 213.059 187.803 211.408L182.845 212.055C182.62 210.332 182.439 208.596 182.304 206.848L187.289 206.461C187.161 204.817 187.075 203.161 187.032 201.494L182.034 201.623C182.011 200.751 182 199.877 182 199C182 198.123 182.011 197.249 182.034 196.377L187.032 196.506C187.075 194.839 187.161 193.183 187.289 191.539L182.304 191.152C182.44 189.404 182.62 187.668 182.845 185.945L187.803 186.592C188.018 184.941 188.276 183.303 188.575 181.679L183.658 180.773C183.976 179.049 184.337 177.341 184.742 175.65L189.605 176.813C189.992 175.195 190.42 173.593 190.889 172.008L186.095 170.59C186.591 168.911 187.131 167.25 187.712 165.609L192.425 167.278C192.98 165.711 193.575 164.163 194.209 162.635L189.59 160.72C190.26 159.104 190.972 157.509 191.723 155.937L196.234 158.093C196.95 156.594 197.705 155.117 198.496 153.663L194.104 151.273C194.939 149.737 195.814 148.226 196.726 146.74L200.987 149.357C201.856 147.942 202.76 146.552 203.7 145.187L199.582 142.352C200.573 140.913 201.6 139.502 202.662 138.119L206.627 141.166C207.638 139.85 208.683 138.562 209.76 137.302L205.959 134.053C207.093 132.726 208.262 131.429 209.463 130.164L213.089 133.606C214.231 132.404 215.404 131.231 216.606 130.089L213.164 126.463C214.429 125.262 215.726 124.093 217.053 122.959L220.302 126.76C221.562 125.683 222.85 124.638 224.166 123.627L221.119 119.662C222.502 118.6 223.913 117.573 225.352 116.582L228.187 120.7C229.552 119.76 230.942 118.856 232.357 117.987L229.74 113.726C231.226 112.814 232.737 111.939 234.273 111.104L236.663 115.496C238.117 114.705 239.594 113.95 241.093 113.234L238.937 108.723C240.509 107.972 242.104 107.26 243.72 106.59L245.635 111.209C247.163 110.575 248.711 109.98 250.278 109.425L248.609 104.712C250.25 104.131 251.911 103.591 253.59 103.095L255.008 107.889C256.593 107.42 258.195 106.992 259.813 106.605L258.65 101.742C260.341 101.337 262.05 100.976 263.773 100.658L264.679 105.575C266.303 105.276 267.941 105.018 269.592 104.803L268.945 99.845C270.668 99.6203 272.404 99.4395 274.152 99.3037L274.539 104.289C276.183 104.161 277.839 104.075 279.506 104.032L279.377 99.0338C280.249 99.0113 281.123 99 282 99H284.5V104H289.5V99H294.5V104H299.5V99H304.5V104H309.5V99H314.5V104H319.5V99H324.5V104H329.5V99H334.5V104H339.5V99H344.5V104H349.5V99H354.5V104H359.5V99H364.5V104H369.5V99H374.5V104H379.5V99H384.5V104H389.5V99H394.5V104H399.5V99H404.5V104H409.5V99H414.5V104H419.5V99H424.5V104H429.5V99H434.5V104H439.5V99H444.5V104H449.5V99H454.5V104H459.5V99H464.5V104H469.5V99H472C472.877 99 473.751 99.0113 474.623 99.0338L474.494 104.032C476.161 104.075 477.817 104.161 479.461 104.289L479.848 99.3037C481.596 99.4395 483.332 99.6203 485.055 99.845L484.408 104.803C486.059 105.018 487.697 105.276 489.321 105.575L490.227 100.658C491.951 100.976 493.659 101.337 495.35 101.742L494.187 106.605C495.805 106.992 497.407 107.42 498.992 107.889L500.41 103.095C502.089 103.591 503.75 104.131 505.391 104.712L503.722 109.425C505.289 109.98 506.837 110.575 508.365 111.209L510.28 106.59C511.896 107.26 513.491 107.972 515.063 108.723L512.907 113.234C514.406 113.95 515.883 114.705 517.337 115.496L519.727 111.104C521.263 111.939 522.774 112.814 524.26 113.726L521.643 117.987C523.058 118.856 524.448 119.76 525.813 120.7L528.648 116.582C530.087 117.573 531.498 118.6 532.881 119.662L529.834 123.627C531.15 124.638 532.438 125.683 533.698 126.76L536.947 122.959C538.274 124.093 539.571 125.262 540.836 126.463L537.394 130.089C538.596 131.231 539.769 132.404 540.911 133.606L544.537 130.164C545.738 131.429 546.907 132.726 548.041 134.053L544.24 137.302C545.317 138.562 546.362 139.85 547.373 141.166L551.338 138.119C552.4 139.502 553.427 140.913 554.418 142.352L550.3 145.187C551.24 146.552 552.144 147.942 553.013 149.357L557.274 146.74C558.186 148.226 559.061 149.737 559.896 151.273L555.504 153.663C556.295 155.117 557.05 156.594 557.766 158.093L562.277 155.937C563.028 157.509 563.74 159.104 564.41 160.72L559.791 162.635C560.425 164.163 561.02 165.711 561.575 167.278L566.288 165.609C566.869 167.25 567.409 168.911 567.905 170.59L563.111 172.008C563.58 173.593 564.008 175.195 564.395 176.813L569.258 175.65C569.663 177.341 570.024 179.05 570.342 180.773L565.425 181.679C565.724 183.303 565.982 184.941 566.197 186.592L571.155 185.945C571.38 187.668 571.56 189.404 571.696 191.152L566.711 191.539C566.839 193.183 566.925 194.839 566.968 196.506L571.966 196.377C571.989 197.249 572 198.123 572 199C572 199.877 571.989 200.751 571.966 201.623L566.968 201.494C566.925 203.161 566.839 204.817 566.711 206.461L571.696 206.848C571.56 208.596 571.38 210.332 571.155 212.055L566.197 211.408C565.982 213.059 565.724 214.697 565.425 216.321L570.342 217.227C570.024 218.951 569.663 220.659 569.258 222.35L564.395 221.187C564.008 222.805 563.58 224.407 563.111 225.992L567.905 227.41C567.409 229.089 566.869 230.75 566.288 232.391L561.575 230.722C561.02 232.289 560.425 233.837 559.791 235.365L564.41 237.28C563.74 238.896 563.028 240.491 562.277 242.063L557.766 239.907C557.05 241.406 556.295 242.883 555.504 244.337L559.896 246.727C559.061 248.263 558.186 249.774 557.274 251.26L553.013 248.643C552.144 250.058 551.24 251.448 550.3 252.813L554.418 255.648C553.427 257.087 552.4 258.498 551.338 259.881L547.373 256.834C546.362 258.15 545.317 259.438 544.24 260.698L548.041 263.947C546.907 265.274 545.738 266.571 544.537 267.836L540.911 264.394C539.769 265.596 538.596 266.769 537.394 267.911L540.836 271.537C539.571 272.738 538.274 273.907 536.947 275.041L533.698 271.24C532.438 272.317 531.15 273.362 529.834 274.373L532.881 278.338C531.498 279.4 530.087 280.427 528.648 281.418L525.813 277.3C524.448 278.24 523.058 279.144 521.643 280.013L524.26 284.274C522.774 285.186 521.263 286.061 519.727 286.896L517.337 282.504C515.883 283.295 514.406 284.05 512.907 284.766L515.063 289.277C513.491 290.028 511.896 290.74 510.28 291.41L508.365 286.791C506.837 287.425 505.289 288.02 503.722 288.575L505.391 293.288C503.75 293.869 502.089 294.409 500.41 294.905L498.992 290.111C497.407 290.58 495.805 291.008 494.187 291.395L495.35 296.258C493.659 296.663 491.951 297.024 490.227 297.342L489.321 292.425C487.697 292.724 486.059 292.982 484.408 293.197L485.055 298.155C483.332 298.38 481.596 298.561 479.848 298.696L479.461 293.711C477.817 293.839 476.161 293.925 474.494 293.968L474.623 298.966C473.751 298.989 472.877 299 472 299H469.5V294H464.5V299H459.5V294H454.5V299H449.5V294H444.5V299H439.5V294H434.5V299H429.5V294H424.5V299H419.5V294H414.5V299H409.5V294H404.5V299H399.5V294H394.5V299H389.5V294H384.5V299H379.5V294H374.5V299H369.5V294H364.5V299H359.5V294H354.5V299H349.5V294H344.5V299H339.5V294H334.5V299H329.5V294H324.5V299H319.5V294H314.5V299H309.5V294H304.5V299H299.5V294H294.5V299H289.5V294H284.5Z" fill="#2E266D"/>
<path d="M273.24 201.101H298.725L299.086 205.749L291.633 207.583C291.633 207.91 291.593 208.644 291.513 209.785C291.433 210.927 291.352 212.721 291.272 215.167C291.272 217.613 291.272 221.079 291.272 225.564V244.4C291.352 249.537 292.154 253.696 293.676 256.876C295.279 260.056 297.443 262.38 300.168 263.848C302.973 265.234 306.219 265.927 309.905 265.927C313.431 265.927 316.477 265.193 319.041 263.726C321.686 262.176 323.73 259.771 325.172 256.509C326.615 253.247 327.336 248.926 327.336 243.544V227.765C327.336 224.096 327.296 220.875 327.216 218.102C327.136 215.248 327.055 212.925 326.975 211.131C326.895 209.255 326.775 208.073 326.615 207.583L318.2 205.749L318.56 201.101H341.882L342.242 205.749L334.909 207.583C334.909 207.828 334.869 208.603 334.789 209.907C334.709 211.212 334.629 213.291 334.549 216.145C334.549 218.918 334.549 222.791 334.549 227.765V244.155C334.549 251.005 333.427 256.631 331.183 261.035C328.939 265.438 325.853 268.7 321.926 270.82C318.08 272.94 313.672 274 308.703 274C299.968 274 293.115 271.554 288.147 266.661C283.258 261.687 280.814 254.756 280.814 245.868V225.564C280.814 221.079 280.774 217.613 280.694 215.167C280.613 212.639 280.533 210.804 280.453 209.663C280.453 208.521 280.413 207.828 280.333 207.583L273 205.749L273.24 201.101Z" fill="white"/>
<path d="M354.023 272.899L353.783 268.251L360.635 266.539C360.715 266.213 360.755 265.397 360.755 264.093C360.835 262.788 360.875 260.912 360.875 258.466C360.955 255.938 360.995 252.84 360.995 249.17L361.116 223.362C361.116 220.1 361.075 217.369 360.995 215.167C360.995 212.884 360.955 211.09 360.875 209.785C360.875 208.48 360.835 207.706 360.755 207.461L353.302 205.749L353.662 201.101H391.649C392.852 201.101 394.054 201.101 395.256 201.101C396.538 201.019 397.86 200.938 399.223 200.856C400.665 200.775 402.148 200.693 403.671 200.612L406.195 216.757L400.665 217.613L396.578 207.339C396.017 207.176 395.336 207.094 394.534 207.094C393.813 207.013 393.012 206.972 392.13 206.972H378.787C377.585 206.972 376.222 207.013 374.699 207.094C373.257 207.094 372.095 207.176 371.213 207.339C371.213 207.665 371.173 208.277 371.093 209.174C371.093 210.071 371.093 211.212 371.093 212.598C371.093 213.985 371.093 215.534 371.093 217.246C371.093 218.877 371.093 220.671 371.093 222.628L371.213 249.293C371.213 253.125 371.213 256.264 371.213 258.711C371.293 261.157 371.374 262.992 371.454 264.215C371.534 265.438 371.614 266.213 371.694 266.539L381.431 268.007L381.191 272.899H354.023ZM392.25 248.803L390.688 239.997C390.207 239.834 389.445 239.711 388.404 239.63C387.442 239.548 386.28 239.507 384.918 239.507H374.82C374.018 239.507 373.097 239.548 372.055 239.63C371.093 239.63 369.931 239.671 368.569 239.752V233.025C369.53 233.106 370.532 233.188 371.574 233.269C372.696 233.351 373.778 233.392 374.82 233.392H384.918C386.52 233.392 387.763 233.351 388.644 233.269C389.606 233.106 390.287 232.984 390.688 232.902L392.25 224.585H397.42V248.803H392.25Z" fill="white"/>
<path d="M451.996 274C445.024 274 438.652 272.655 432.882 269.964C427.192 267.191 422.624 263.114 419.178 257.732C415.732 252.269 414.009 245.542 414.009 237.55C414.009 232.413 414.89 227.602 416.654 223.117C418.417 218.551 420.981 214.555 424.347 211.131C427.793 207.624 431.961 204.893 436.849 202.936C441.738 200.979 447.308 200 453.559 200C456.844 200 460.331 200.326 464.017 200.979C467.704 201.631 470.989 202.569 473.874 203.792L474.716 220.549L469.306 221.038L465.7 209.418C464.177 208.358 462.174 207.583 459.689 207.094C457.205 206.523 454.801 206.238 452.477 206.238C446.466 206.238 441.537 207.583 437.691 210.274C433.924 212.884 431.119 216.39 429.276 220.793C427.513 225.197 426.631 230.048 426.631 235.349C426.631 242.28 427.793 248.151 430.117 252.962C432.522 257.773 435.727 261.402 439.734 263.848C443.821 266.294 448.309 267.517 453.198 267.517C455.763 267.517 458.087 267.232 460.17 266.661C462.254 266.09 464.258 265.234 466.181 264.093L471.47 252.595L477 253.207L473.634 268.618C470.909 270.086 467.664 271.35 463.897 272.41C460.13 273.47 456.163 274 451.996 274Z" fill="white"/>
<path d="M260.201 194.002L260 190.169L264.929 188.757L285.653 136.508L291.488 132.977L313.418 188.757L318.448 190.169L318.146 194.002H297.825L297.624 190.169L303.761 188.757L297.825 173.829L296.719 170.702L285.753 143.266L288.067 141.954L277.605 170.702L276.498 173.728L271.167 188.757L277.303 190.169L277.102 194.002H260.201ZM274.285 175.342V169.996C275.559 170.063 277.303 170.13 279.516 170.197C281.729 170.265 284.446 170.298 287.665 170.298C290.817 170.298 293.5 170.265 295.713 170.197C297.993 170.13 299.737 170.063 300.944 169.996V175.342C298.664 175.274 296.383 175.241 294.103 175.241C291.89 175.174 289.744 175.14 287.665 175.14C285.653 175.14 283.54 175.174 281.327 175.241C279.181 175.241 276.834 175.274 274.285 175.342Z" fill="white"/>
<path d="M321.265 194.002L321.064 190.27L327.603 188.858C327.737 188.185 327.837 187.076 327.905 185.529C327.972 183.983 328.005 181.932 328.005 179.376C328.072 176.821 328.106 173.694 328.106 169.996V157.387C328.106 154.832 328.072 152.209 328.005 149.52C328.005 146.83 327.972 144.308 327.905 141.954C327.905 139.534 327.871 137.483 327.804 135.802C327.804 134.053 327.77 132.91 327.703 132.372L320.259 131.363L320.058 128.136L334.443 124L336.355 125.412C336.288 128.236 336.221 131.061 336.154 133.885C336.087 136.709 336.02 139.836 335.952 143.266C335.952 146.695 335.952 150.831 335.952 155.672L335.852 171.912C335.852 175.88 335.885 179.477 335.952 182.705C336.087 185.866 336.221 187.916 336.355 188.858L342.894 190.27L342.693 194.002H321.265Z" fill="white"/>
<path d="M391.282 186.941L397.62 188.555V191.884L384.542 195.112L383.033 193.8L383.134 187.446L382.832 187.345C380.887 190.102 378.875 192.052 376.796 193.195C374.784 194.271 372.604 194.809 370.257 194.809C365.763 194.809 362.008 193.431 358.99 190.674C355.972 187.849 354.463 183.646 354.463 178.065V169.39C354.463 167.508 354.396 165.692 354.262 163.944C354.194 162.128 354.094 160.312 353.96 158.497L347.119 157.085V153.756L360.801 150.024L362.611 151.638C362.477 153.722 362.377 155.941 362.31 158.295C362.242 160.649 362.209 163.103 362.209 165.658L362.108 176.754C362.108 180.923 363.081 183.915 365.026 185.731C366.971 187.479 369.452 188.354 372.47 188.354C374.281 188.354 376.125 187.883 378.003 186.941C379.881 186 381.524 184.386 382.932 182.1V170.399C382.932 168.92 382.899 167.474 382.832 166.062C382.832 164.582 382.798 163.204 382.731 161.926C382.664 160.581 382.563 159.438 382.429 158.497L375.086 157.085V153.756L389.27 150.024L390.779 151.436C390.712 153.319 390.645 155 390.578 156.479C390.578 157.959 390.578 159.438 390.578 160.918C390.578 162.33 390.578 163.944 390.578 165.759V172.921C390.578 176.619 390.645 179.612 390.779 181.898C390.98 184.117 391.148 185.798 391.282 186.941Z" fill="white"/>
<path d="M423.574 217C417.404 217 412.509 215.991 408.887 213.974C405.265 211.957 403.455 209.267 403.455 205.905C403.455 203.618 404.36 201.5 406.171 199.55C407.982 197.6 410.899 195.616 414.923 193.599L418.746 194.406C416.533 195.683 414.822 197.163 413.615 198.844C412.408 200.592 411.804 202.441 411.804 204.392C411.804 207.081 412.877 209.166 415.024 210.645C417.237 212.125 420.221 212.864 423.977 212.864C428.336 212.864 431.857 211.923 434.54 210.04C437.222 208.157 438.564 205.736 438.564 202.778C438.564 200.491 437.725 198.777 436.049 197.633C434.439 196.557 431.757 195.885 428.001 195.616L417.237 194.708L415.728 194.305C413.246 194.305 411.134 193.666 409.39 192.388C407.713 191.043 406.875 189.43 406.875 187.547C406.875 185.731 407.747 183.949 409.491 182.201C411.234 180.452 413.649 178.906 416.734 177.561L418.042 179.578C416.767 180.452 415.828 181.259 415.225 181.999C414.621 182.671 414.319 183.344 414.319 184.016C414.319 184.958 414.722 185.765 415.527 186.437C416.398 187.11 417.606 187.513 419.148 187.648L432.125 188.959C436.753 189.43 440.274 190.606 442.688 192.489C445.103 194.372 446.31 197.062 446.31 200.559C446.31 203.652 445.304 206.443 443.292 208.931C441.28 211.419 438.564 213.369 435.143 214.781C431.723 216.26 427.867 217 423.574 217ZM424.379 181.495C420.825 181.495 417.639 180.856 414.822 179.578C412.073 178.3 409.927 176.552 408.384 174.333C406.841 172.047 406.07 169.458 406.07 166.566C406.07 163.406 406.875 160.581 408.485 158.093C410.094 155.538 412.274 153.554 415.024 152.142C417.773 150.663 420.858 149.923 424.279 149.923C427.699 149.923 430.751 150.595 433.433 151.94C436.183 153.285 438.329 155.168 439.872 157.589C441.414 159.943 442.185 162.632 442.185 165.658C442.185 168.617 441.381 171.307 439.771 173.728C438.228 176.149 436.116 178.065 433.433 179.477C430.751 180.822 427.733 181.495 424.379 181.495ZM424.882 177.46C427.632 177.46 429.812 176.451 431.421 174.434C433.031 172.416 433.836 169.727 433.836 166.364C433.836 162.599 432.93 159.573 431.119 157.286C429.376 155 427.062 153.857 424.178 153.857C421.428 153.857 419.182 154.933 417.438 157.085C415.694 159.236 414.822 162.027 414.822 165.457C414.822 169.021 415.728 171.912 417.539 174.131C419.416 176.35 421.864 177.46 424.882 177.46ZM448.221 157.185L436.25 156.379L432.327 152.344L448.221 150.73V157.185Z" fill="white"/>
<path d="M469.146 194.809C466.463 194.809 464.082 194.271 462.003 193.195C459.924 192.119 458.281 190.741 457.074 189.06C455.934 187.379 455.364 185.63 455.364 183.815C455.364 181.528 456.102 179.645 457.577 178.166C459.053 176.687 461.467 175.409 464.82 174.333L480.111 169.189V164.044C480.111 162.363 479.608 160.85 478.602 159.505C477.596 158.093 476.255 156.984 474.578 156.177C472.902 155.37 471.024 154.966 468.945 154.966C467.268 154.966 466.128 155.336 465.524 156.076C464.921 156.748 464.552 158.127 464.418 160.211L464.217 164.448C461.802 164.986 459.757 164.919 458.08 164.246C456.403 163.507 455.565 162.33 455.565 160.716C455.565 159.573 456.035 158.43 456.973 157.286C457.979 156.143 459.287 155.067 460.897 154.059C462.506 152.983 464.25 152.075 466.128 151.335C468.006 150.595 469.85 150.091 471.661 149.822C476.624 149.822 480.581 151.133 483.532 153.756C486.55 156.379 488.092 159.808 488.159 164.044L487.958 180.99C487.958 182.268 487.992 183.512 488.059 184.722C488.193 185.933 488.36 186.841 488.562 187.446L495 188.656V191.783L490.071 193.599C489.132 193.935 488.26 194.204 487.455 194.406C486.65 194.675 485.98 194.809 485.443 194.809C483.364 194.809 482.023 193.632 481.419 191.279L480.312 187.345H481.821C479.608 189.833 477.462 191.716 475.383 192.993C473.371 194.204 471.292 194.809 469.146 194.809ZM471.862 188.858C473.405 188.858 474.847 188.522 476.188 187.849C477.529 187.11 478.837 186 480.111 184.521V173.93L468.844 176.956C467.235 177.359 466.061 177.998 465.323 178.872C464.653 179.746 464.317 180.856 464.317 182.201C464.317 183.882 465.055 185.428 466.53 186.841C468.073 188.185 469.85 188.858 471.862 188.858Z" fill="white"/>
<ellipse cx="91.5" cy="175" rx="74.5" ry="76" fill="#5271FF"/>
<mask id="mask0_9_147" style="mask-type:luminance" maskUnits="userSpaceOnUse" x="24" y="99" width="135" height="135">
<path d="M158.101 99.3568L24.4128 99.3893L24.4453 233.078L158.134 233.045L158.101 99.3568Z" fill="white"/>
</mask>
<g mask="url(#mask0_9_147)">
<mask id="mask1_9_147" style="mask-type:luminance" maskUnits="userSpaceOnUse" x="24" y="99" width="135" height="135">
<path d="M91.257 99.3731C128.174 99.3641 158.108 129.284 158.117 166.201C158.126 203.118 128.207 233.053 91.2896 233.061C54.3725 233.07 24.438 203.151 24.429 166.234C24.4201 129.317 54.34 99.3821 91.257 99.3731Z" fill="white"/>
</mask>
<g mask="url(#mask1_9_147)">
<path d="M158.101 99.3568L24.4128 99.3893L24.4453 233.078L158.134 233.045L158.101 99.3568Z" fill="white"/>
</g>
</g>
<mask id="mask2_9_147" style="mask-type:luminance" maskUnits="userSpaceOnUse" x="8" y="85" width="167" height="212">
<path d="M174.948 85L7.99998 85.0407L8.05158 296.937L175 296.896L174.948 85Z" fill="white"/>
</mask>
<g mask="url(#mask2_9_147)">
<path d="M91.4928 235.787C128.581 235.778 158.637 205.677 158.628 168.56C158.619 131.436 128.548 101.349 91.4601 101.358C54.3829 101.367 24.3283 131.468 24.3374 168.593C24.3464 205.71 54.4156 235.796 91.4928 235.787ZM91.4561 85.0286C137.552 85.0174 174.93 122.415 174.941 168.556C174.959 241.994 92.8176 296.072 91.5189 296.926C91.5077 296.926 91.5077 296.926 91.5077 296.926C91.5077 296.926 8.04264 242.617 8.02462 168.597C8.01338 122.456 45.3715 85.0398 91.4561 85.0286Z" fill="#2E266D"/>
<path d="M101.64 164.106L81.3326 164.111C80.3152 164.111 79.4875 164.938 79.4878 165.959L79.4926 185.703C79.4928 186.722 80.3209 187.551 81.3383 187.551L101.646 187.546C102.665 187.545 103.491 186.717 103.49 185.697L103.486 165.954C103.485 164.932 102.659 164.106 101.64 164.106ZM49.9802 154.62L88.3057 128.875C89.167 128.292 90.2976 127.966 91.4833 127.965C92.6572 127.965 93.788 128.29 94.6496 128.861L132.987 154.6C133.054 154.644 133.132 154.7 133.189 154.768C134.889 156.468 134.688 157.836 134.408 158.498C134.129 159.17 133.313 160.29 130.907 160.29L121.375 160.293L121.384 195.705C121.385 198.92 118.778 201.542 115.566 201.543L67.4244 201.554C64.2129 201.555 61.6064 198.935 61.6056 195.72L61.597 160.307L52.064 160.31C49.6574 160.31 48.841 159.19 48.5621 158.519C48.2917 157.857 48.0804 156.49 49.7794 154.789C49.8472 154.721 49.9151 154.664 49.9802 154.62Z" fill="#2E266D"/>
</g>
</svg>
